<svg xmlns="http://www.w3.org/2000/svg" xmlns:xlink="http://www.w3.org/1999/xlink" width="404" height="302" viewBox="0 0 404 302" fill="none"><g opacity="1"  transform="translate(52 0)  rotate(0)"><path id="Subtract" fill-rule="evenodd" style="fill:#F0F3FC" opacity="1" d="M0,203.57c0,-82.84 67.16,-150 150,-150c82.84,0 150,67.16 150,150c0,36.718 -13.195,70.356 -35.101,96.43h-229.7984c-21.9061,-26.074 -35.1006,-59.712 -35.1006,-96.43z"></path><g opacity="0.15"  transform="translate(194.74462890625 158.95001220703125)  rotate(0)"><g opacity="1"  transform="translate(0 0)  rotate(0)"><path id="Union" fill-rule="evenodd" style="fill:#9D9FA4" opacity="1" d="M36.7099,36.45l4.82,-32.82001c0.04,-0.25 0.15,-0.49 0.31,-0.68l1.91,-2.27v37.81001c0,0.008 -0.0001,0.0159 -0.0002,0.0238v11.8362c0,0.37 -0.31,0.68 -0.68,0.68c-0.38,0 -0.69,-0.3 -0.69,-0.68v-10.4872c-0.1785,0.0002 -0.3613,-0.0354 -0.5398,-0.1128l-4.31,-1.85c-0.57,-0.24 -0.91,-0.84 -0.82,-1.45z"></path><path id="Union" fill-rule="evenodd" style="fill:#BCBEC4" opacity="1" d="M36.7099,35.77l4.82,-32.82c0.04,-0.25 0.15,-0.49 0.31,-0.68l1.91,-2.27v37.81c0,0.008 -0.0001,0.0159 -0.0002,0.0239v11.8361c0,0.37 -0.31,0.68 -0.68,0.68c-0.38,0 -0.69,-0.3 -0.69,-0.68v-10.4872c-0.1785,0.0002 -0.3613,-0.0354 -0.5398,-0.1128l-4.31,-1.85c-0.57,-0.24 -0.91,-0.84 -0.82,-1.45z"></path><path id="Union" fill-rule="evenodd" style="fill:#9D9FA4" opacity="1" d="M43.3467,49.4623c0.3291,-0.19 0.7526,-0.0766 0.9426,0.2525c0.19,0.3291 0.0715,0.7439 -0.2576,0.9339l-9.0735,5.2386c0.0895,0.1545 0.1501,0.3307 0.1723,0.5241l0.5529,4.6575c0.0771,0.6137 -0.2725,1.2081 -0.8457,1.4352l-30.833,12.2357c-0.23651,0.0904 -0.49936,0.1151 -0.7439,0.0716l-2.92088,-0.5191z"></path><path id="Union" fill-rule="evenodd" style="fill:#BCBEC4" opacity="1" d="M43.0068,49.1223c0.3291,-0.19 0.7526,-0.0765 0.9426,0.2525c0.19,0.3291 0.0715,0.7439 -0.2576,0.9339l-9.0737,5.2387c0.0894,0.1545 0.15,0.3307 0.1723,0.524l0.5528,4.6576c0.0772,0.6136 -0.2724,1.2081 -0.8457,1.4351l-30.83296,12.2358c-0.2365,0.0903 -0.49935,0.1151 -0.74389,0.0715l-2.92088,-0.5191l32.74443,-18.905l0.0147,-0.0084z"></path><path id="Union" fill-rule="evenodd" style="fill:#9D9FA4" opacity="1" d="M42.6989,51.1178c-0.3291,-0.19 -0.4426,-0.6135 -0.2526,-0.9426c0.19,-0.3291 0.6085,-0.4339 0.9376,-0.2439l9.0735,5.2386c0.089,-0.1547 0.2114,-0.2953 0.3677,-0.4112l3.7571,-2.8076c0.4929,-0.3736 1.1825,-0.3681 1.6657,0.0149l26.013,20.5842c0.1965,0.1596 0.3494,0.3749 0.4339,0.6085l1.0109,2.7891z"></path><path id="Union" fill-rule="evenodd" style="fill:#BCBEC4" opacity="1" d="M42.6988,50.4277c-0.3291,-0.19 -0.4425,-0.6135 -0.2525,-0.9426c0.19,-0.329 0.6084,-0.4339 0.9375,-0.2439l9.0735,5.2386c0.0891,-0.1547 0.2114,-0.2952 0.3677,-0.4112l3.7572,-2.8076c0.4928,-0.3736 1.1824,-0.3681 1.6657,0.0149l26.013,20.5842c0.1965,0.1597 0.3493,0.3749 0.4339,0.6085l1.0108,2.7891z"></path></g><path id="Union" fill-rule="evenodd" style="fill:#9D9FA4" opacity="1" d="M41.0054,49.91c0,-1.51 1.23,-2.74 2.74,-2.74c1.51,0 2.74,1.23 2.74,2.74c0,1.1311 -0.6903,2.1051 -1.6713,2.5227l5.4313,90.6173h-13.01l5.4315,-90.6215c-0.9759,-0.4198 -1.6615,-1.3911 -1.6615,-2.5185z"></path><path id="Union" fill-rule="evenodd" style="fill:#BCBEC4" opacity="1" d="M40.3254,49.91c0,-1.51 1.23,-2.74 2.74,-2.74c1.51,0 2.74,1.23 2.74,2.74c0,1.1311 -0.6902,2.1051 -1.6713,2.5227l5.4313,90.6173h-13.01l5.4316,-90.6215c-0.9759,-0.4198 -1.6616,-1.3911 -1.6616,-2.5185z"></path></g><g opacity="0.6"  transform="translate(4 176)  rotate(0)"><path id="Rectangle 445" fill-rule="evenodd" style="fill:#E9EBF2" opacity="1" d="M13.36 63L13.36 63C20.73 63 26.71 57.02 26.71 49.65L26.71 13.36C26.71 5.98 20.74 0 13.36 0L13.36 0C5.98 0 0 5.98 0 13.36L0 49.65C0 57.03 5.98 63 13.36 63Z"></path><path id="Rectangle 446" fill-rule="evenodd" style="fill:#E1E2E5" opacity="1" d="M13.56 124L13.56 124C14 124 14.35 123.65 14.35 123.21L14.35 26.32C14.35 25.88 14 25.52 13.56 25.52L13.56 25.52C13.12 25.52 12.76 25.88 12.76 26.32L12.76 123.21C12.76 123.65 13.12 124 13.56 124Z"></path><path id="Rectangle 447" fill-rule="evenodd" style="fill:#E1E2E5" opacity="1" d="M13.3092 41.0622L13.3092 41.0622C13.6903 41.2822 14.1684 41.1541 14.3884 40.773L20.3134 30.5106C20.5334 30.1296 20.4103 29.6428 20.0292 29.4228L20.0292 29.4228C19.6482 29.2028 19.1564 29.3346 18.9364 29.7156L13.0114 39.9781C12.7914 40.3591 12.9282 40.8422 13.3092 41.0622Z"></path><path id="Rectangle 448" fill-rule="evenodd" style="fill:#E1E2E5" opacity="1" d="M14.181 49.003L5.526 34.0121C5.306 33.631 4.8229 33.4943 4.44184 33.7143L4.44184 33.7143C4.06079 33.9343 3.92902 34.426 4.14902 34.8071L12.804 49.798C13.024 50.179 13.5158 50.3108 13.8968 50.0908L13.8968 50.0908C14.2779 49.8708 14.401 49.384 14.181 49.003Z"></path></g><g opacity="1"  transform="translate(39 124)  rotate(0)"><path id="Rectangle 445" fill-rule="evenodd" style="fill:#E9EBF2" opacity="1" d="M19.1 90.08L19.1 90.08C29.65 90.08 38.2 81.53 38.2 70.98L38.2 19.1C38.2 8.55 29.65 0 19.1 0L19.1 0C8.55 0 0 8.55 0 19.1L0 70.98C0 81.53 8.55 90.08 19.1 90.08Z"></path><path id="Rectangle 446" fill-rule="evenodd" style="fill:#E1E2E5" opacity="1" d="M19.38 177.31L19.38 177.31C20.01 177.31 20.52 176.8 20.52 176.17L20.52 37.63C20.52 37 20.01 36.49 19.38 36.49L19.38 36.49C18.75 36.49 18.24 37 18.24 37.63L18.24 176.17C18.24 176.8 18.75 177.31 19.38 177.31Z"></path><path id="Rectangle 447" fill-rule="evenodd" style="fill:#E1E2E5" opacity="1" d="M19.025 58.7125L19.025 58.7125C19.5706 59.0275 20.2672 58.8408 20.5822 58.2952L29.0522 43.6248C29.3672 43.0792 29.1806 42.3825 28.635 42.0675L28.635 42.0675C28.0894 41.7525 27.3927 41.9392 27.0777 42.4848L18.6077 57.1552C18.2927 57.7008 18.4794 58.3975 19.025 58.7125Z"></path><path id="Rectangle 448" fill-rule="evenodd" style="fill:#E1E2E5" opacity="1" d="M20.2773 70.0714L7.89732 48.6286C7.58232 48.083 6.88565 47.8964 6.34005 48.2114L6.34005 48.2114C5.79446 48.5264 5.60778 49.223 5.92278 49.7686L18.3028 71.2114C18.6178 71.757 19.3145 71.9437 19.8601 71.6287L19.8601 71.6287C20.4056 71.3137 20.5923 70.617 20.2773 70.0714Z"></path></g><path id="Union" fill-rule="evenodd" style="fill:#FFFFFF" opacity="0.8" d="M85.0001,105.93c0,0.071 -0.0009,0.142 -0.0028,0.213c4.2841,0.11 7.7226,3.616 7.7226,7.927c0,4.31 -3.437,7.816 -7.7198,7.927v0.003h-15.86v-0.003c-0.0698,0.002 -0.1398,0.003 -0.2101,0.003c-4.38,0 -7.93,-3.55 -7.93,-7.93c0,-4.38 3.55,-7.93 7.93,-7.93c0.0712,0 0.1422,0.001 0.2129,0.003c-0.0019,-0.071 -0.0028,-0.142 -0.0028,-0.213c0,-4.38 3.55,-7.93 7.93,-7.93c4.38,0 7.93,3.55 7.93,7.93z"></path><path id="Union" fill-rule="evenodd" style="fill:#FFFFFF" opacity="0.6" d="M219,124.65c0,0.02 0,0.04 -0.001,0.061c1.433,0.031 2.581,1.199 2.581,2.649c0,1.44 -1.148,2.608 -2.58,2.639v0.001h-5.29v-0.001c-0.02,0.001 -0.04,0.001 -0.06,0.001c-1.47,0 -2.65,-1.18 -2.65,-2.64c0,-1.47 1.18,-2.65 2.65,-2.65c0.02,0 0.041,0 0.061,0.001c-0.001,-0.02 -0.001,-0.041 -0.001,-0.061c0,-1.47 1.18,-2.65 2.65,-2.65c1.46,0 2.64,1.18 2.64,2.65z"></path><path id="Union" fill-rule="evenodd" style="fill:#FFFFFF" opacity="1" d="M177.3,69.26c3.954,0 7.22,2.9314 7.746,6.74h2.934c3.59,0 6.5,2.91 6.5,6.5c0,3.59 -2.91,6.5 -6.5,6.5h-38.48c-3.59,0 -6.5,-2.91 -6.5,-6.5c0,-3.146 2.235,-5.7698 5.203,-6.3707c-0.002,-0.0995 -0.003,-0.1993 -0.003,-0.2993c0,-7.09 5.74,-12.83 12.83,-12.83c5.262,0 9.78,3.1614 11.76,7.6899c1.275,-0.9008 2.83,-1.4299 4.51,-1.4299z"></path><path id="Union" fill-rule="evenodd" style="fill:#FFFFFF" opacity="0.6" d="M118.99,141.55c1.611,0 2.945,1.198 3.16,2.75h1.2c1.46,0 2.65,1.19 2.65,2.65c0,1.46 -1.19,2.65 -2.65,2.65h-15.7c-1.46,0 -2.65,-1.19 -2.65,-2.65c0,-1.279 0.913,-2.351 2.121,-2.597c-0.001,-0.038 -0.001,-0.075 -0.001,-0.113c0,-2.9 2.34,-5.24 5.24,-5.24c2.142,0 3.981,1.29 4.79,3.135c0.52,-0.369 1.155,-0.585 1.84,-0.585z"></path><g opacity="1"  transform="translate(199.594970703125 77.05999755859375)  rotate(0)"><g opacity="1"  transform="translate(0 0)  rotate(0)"><path id="Union" fill-rule="evenodd" style="fill:#DCDFE5" opacity="1" d="M57.7203,57.32l7.58,-51.59998c0.06,-0.4 0.23,-0.77 0.49,-1.07l3,-3.57v47.91528l0.0001,0.0147v30.16c0,0.59 -0.48,1.07 -1.07,1.07c-0.59,0 -1.08,-0.48 -1.08,-1.07v-16.4738c-0.2806,0.0005 -0.5685,-0.0552 -0.8501,-0.1762l-6.79,-2.9c-0.9,-0.39 -1.43,-1.33 -1.28,-2.3z"></path><path id="Union" fill-rule="evenodd" style="fill:#E9EBF2" opacity="1" d="M57.7203,56.24l7.58,-51.6c0.06,-0.4 0.23,-0.77 0.49,-1.07l3,-3.57v47.9152l0.0001,0.0148v30.16c0,0.59 -0.48,1.07 -1.07,1.07c-0.59,0 -1.08,-0.48 -1.08,-1.07v-16.4738c-0.2806,0.0005 -0.5685,-0.0552 -0.8501,-0.1762l-6.79,-2.9c-0.9,-0.39 -1.43,-1.33 -1.28,-2.3z"></path><path id="Union" fill-rule="evenodd" style="fill:#DCDFE5" opacity="1" d="M68.1494,77.7779c0.5196,-0.3 1.1753,-0.1244 1.4753,0.3953c0.295,0.5109 0.1107,1.1716 -0.4003,1.4666l-14.2581,8.2319c0.1407,0.2428 0.2364,0.5199 0.2724,0.8242l0.8836,7.3303c0.1122,0.9745 -0.4368,1.9035 -1.3519,2.2586l-48.4769,19.2352c-0.3764,0.148 -0.78183,0.186 -1.17164,0.111l-4.59172,-0.813z"></path><path id="Union" fill-rule="evenodd" style="fill:#E9EBF2" opacity="1" d="M67.6195,77.2379c0.5196,-0.3 1.1753,-0.1243 1.4753,0.3953c0.295,0.511 0.1107,1.1717 -0.4003,1.4667l-14.2582,8.2319c0.1407,0.2428 0.2364,0.5199 0.2724,0.8242l0.8835,7.3303c0.1123,0.9744 -0.4368,1.9034 -1.3518,2.2585l-48.47693,19.2352c-0.3764,0.148 -0.78183,0.186 -1.17163,0.111l-4.59173,-0.813l51.49389,-29.7301l0.0184,-0.0105z"></path><path id="Union" fill-rule="evenodd" style="fill:#DCDFE5" opacity="1" d="M67.1654,80.3821c-0.5196,-0.3 -0.6953,-0.9557 -0.3953,-1.4753c0.295,-0.511 0.9594,-0.6817 1.4703,-0.3867l14.2581,8.2319c0.1399,-0.2432 0.3321,-0.4646 0.5776,-0.648l5.9065,-4.4303c0.7877,-0.5844 1.8668,-0.5734 2.6318,0.0415l40.8966,32.3648c0.317,0.252 0.552,0.584 0.682,0.959l1.592,4.383z"></path><path id="Union" fill-rule="evenodd" style="fill:#E9EBF2" opacity="1" d="M67.1655,79.3022c-0.5196,-0.3 -0.6953,-0.9557 -0.3953,-1.4753c0.295,-0.511 0.9594,-0.6817 1.4703,-0.3867l14.258,8.2319c0.1399,-0.2433 0.3321,-0.4647 0.5776,-0.6481l5.9065,-4.4303c0.7877,-0.5844 1.8668,-0.5734 2.6318,0.0415l40.8966,32.3648c0.317,0.252 0.552,0.584 0.682,0.959l1.592,4.383z"></path></g><path id="Union" fill-rule="evenodd" style="fill:#DCDFE5" opacity="1" d="M64.4751,78.48c0,-2.38 1.93,-4.31 4.31,-4.31c2.38,0 4.31,1.93 4.31,4.31c0,1.7778 -1.0769,3.3046 -2.6139,3.9633l8.5337,142.4967h-20.46l8.5338,-142.4968c-1.5368,-0.6589 -2.6136,-2.1855 -2.6136,-3.9632z"></path><path id="Union" fill-rule="evenodd" style="fill:#E9EBF2" opacity="1" d="M63.405,78.48c0,-2.38 1.93,-4.31 4.31,-4.31c2.38,0 4.31,1.93 4.31,4.31c0,1.7777 -1.0768,3.3044 -2.6136,3.9632l8.5337,142.4968h-20.46l8.5338,-142.4967c-1.537,-0.6588 -2.6139,-2.1855 -2.6139,-3.9633z"></path></g><g opacity="1"  transform="translate(222 263.004638671875)  rotate(0)"><path id="Vector 9" fill-rule="evenodd" style="fill:#D7D8DE" opacity="1" d="M66.91 35.9954C69.32 35.9954 71.96 35.5154 68.38 33.5054C71.39 33.5054 74.45 31.7954 68.98 30.8854C71.24 29.4254 71.24 24.6754 65.77 27.0454C68.98 21.5754 63.7 19.0154 60.68 24.1254C59.17 19.1954 51.44 17.3754 53.7 26.1354C50.08 24.1254 44.8 28.9454 51.97 31.4954C48.76 32.2254 43.29 35.9954 55.97 35.9954L66.91 35.9954Z"></path><path id="Vector 10" fill-rule="evenodd" style="fill:#D7D8DE" opacity="1" d="M18.91 35.9954C21.32 35.9954 23.96 35.5154 20.38 33.5054C23.39 33.5054 26.45 31.7954 20.98 30.8854C23.24 29.4254 23.24 24.6754 17.77 27.0454C20.98 21.5754 15.7 19.0154 12.68 24.1254C11.17 19.1954 3.44 17.3754 5.7 26.1354C2.08 24.1254 -3.2 28.9454 3.97 31.4954C0.76 32.2254 -4.71 35.9954 7.97 35.9954L18.91 35.9954Z"></path><path id="Vector 8" fill-rule="evenodd" style="fill:#E1E1E5" opacity="1" d="M51.54 36.9954C56.26 36.9954 61.43 36.0954 54.41 32.3254C60.32 32.3254 66.31 29.1254 55.6 27.4054C60.03 24.6754 60.03 15.7654 49.32 20.2154C55.6 9.94536 45.26 5.15536 39.35 14.7454C36.39 5.49536 21.25 2.07536 25.68 18.5054C18.59 14.7454 8.24001 23.7754 22.28 28.5654C16 29.9354 5.29001 36.9954 30.11 36.9954L51.54 36.9954Z"></path><g opacity="1"  transform="translate(7.0263671875 13.990478515625)  rotate(0)"><path id="Vector 1" fill-rule="evenodd" style="fill:#E5E6ED" opacity="1" d="M1.38388 2.83326C1.52719 3.85794 2.13092 5.11695 3.29454 5.5059C4.46032 5.88507 5.52767 3.4986 3.53839 1.55612C2.71224 0.749907 1.96152 0.206013 -0.0322103 0.146501C0.821856 0.825744 1.23628 1.82812 1.38388 2.83326Z"></path><path id="Vector 5" fill-rule="evenodd" style="fill:#727785" opacity="1" d="M2.79151,2.08431c-0.16545,-0.01251 -0.50692,-0.06667 -0.67767,-0.31612c0.09373,0.13484 0.33749,0.28405 0.67973,0.28083zM2.10549,1.75537c0.00278,0.00427 0.00557,0.00854 0.00835,0.01282c-0.00278,-0.00428 -0.00557,-0.00855 -0.00835,-0.01282z"></path><path id="Vector 6" fill-rule="evenodd" style="fill:#727785" opacity="1" d="M3.4994,3.3047c-0.31704,-0.02209 -0.97524,-0.13198 -1.27993,-0.5847c0.16566,0.24811 0.62019,0.52864 1.28741,0.51804zM2.19974,2.69528c0.00345,0.00939 0.00689,0.01878 0.01973,0.02472c-0.01284,-0.00594 -0.01628,-0.01533 -0.01973,-0.02472z"></path><path id="Vector 7" fill-rule="evenodd" style="fill:#727785" opacity="1" d="M3.94976,4.64423c-0.43159,-0.04395 -1.32234,-0.20695 -1.7473,-0.87119c0.23863,0.35981 0.85501,0.76202 1.75728,0.7823zM2.17929,3.73894c0.00345,0.00939 0.01973,0.02472 0.02317,0.0341c-0.00344,-0.00938 -0.01972,-0.02471 -0.02317,-0.0341z"></path></g><g opacity="1"  transform="translate(64.2021484375 15.997802734375)  rotate(0)"><path id="Vector 1" fill-rule="evenodd" style="fill:#E5E6ED" opacity="1" d="M1.46245 1.16749C-1.19246 1.99329 -1.3267 4.60413 -0.115979 4.79637C1.09727 4.97894 2.20737 4.13201 2.80084 3.2845C3.38926 2.45633 4.21407 1.75192 5.28357 1.5352C3.48072 0.681832 2.56481 0.824986 1.46245 1.16749Z"></path><path id="Vector 2" fill-rule="evenodd" style="fill:#727785" opacity="1" d="M-1.17525,4.49895c0.85522,-1.0582 2.78567,-3.1068 5.0991,-3.0606c-1.25621,-0.01808 -3.30829,0.91351 -4.89722,3.23736zM4.04754,1.43966c-0.04123,-0.00044 -0.08246,-0.00087 -0.12369,-0.00131c0.04123,0.00044 0.08246,0.00087 0.12369,0.00131z"></path><path id="Vector 3" fill-rule="evenodd" style="fill:#727785" opacity="1" d="M1.12001,2.39159c0.07416,-0.30903 0.29129,-0.94003 0.78813,-1.16574c-0.27206,0.12239 -0.62384,0.52433 -0.72362,1.18413zM1.93578,1.21048c-0.00983,0.00185 -0.01966,0.0037 -0.02764,0.01537c0.00798,-0.01167 0.01781,-0.01352 0.02764,-0.01537z"></path><path id="Vector 5" fill-rule="evenodd" style="fill:#727785" opacity="1" d="M1.93336,1.80091c0.16484,0.01896 0.50393,0.08643 0.6648,0.34237c-0.08839,-0.13841 -0.32613,-0.29703 -0.66823,-0.30719zM2.59816,2.14328c0.00261,0.00438 0.00523,0.00875 0.00784,0.01313c-0.00261,-0.00438 -0.00523,-0.00875 -0.00784,-0.01313z"></path><path id="Vector 4" fill-rule="evenodd" style="fill:#727785" opacity="1" d="M0.27187,3.06153c-0.0079,-0.31771 0.03944,-0.98333 0.46143,-1.32936c-0.23138,0.18832 -0.46782,0.66727 -0.39435,1.33053zM0.73329,1.73217c0.0047,-0.01333 0.01372,-0.01765 0.02274,-0.02196c-0.00902,0.00431 -0.01804,0.00863 -0.02274,0.02196z"></path><path id="Vector 6" fill-rule="evenodd" style="fill:#727785" opacity="1" d="M0.78607,2.42112c0.31593,0.03446 0.96933,0.16999 1.2561,0.63428c-0.15584,-0.25439 -0.59906,-0.55248 -1.26619,-0.56796zM2.06091,3.08087c-0.00307,-0.00952 -0.00615,-0.01903 -0.01874,-0.02547c0.01259,0.00644 0.01567,0.01595 0.01874,0.02547z"></path><path id="Vector 7" fill-rule="evenodd" style="fill:#727785" opacity="1" d="M-0.17513,3.22257c0.42954,0.06078 1.31324,0.25847 1.71191,0.93881c-0.22438,-0.36886 -0.82457,-0.79485 -1.72536,-0.85038zM1.53678,4.16138c0.00308,0.00951 0.01874,0.02547 0.02182,0.03498c-0.00308,-0.00951 -0.01874,-0.02547 -0.02182,-0.03498z"></path></g><g opacity="1"  transform="translate(40.00390625 1.56854248046875)  rotate(0)"><path id="Vector 1" fill-rule="evenodd" style="fill:#E5E6ED" opacity="1" d="M1.85584 0.240852C0.0130681 2.32285 1.25114 4.62539 2.38625 4.16244C3.51851 3.68991 4.02909 2.39033 4.09751 1.35795C4.17163 0.344732 4.51207 -0.685123 5.31448 -1.42467C3.33036 -1.22034 2.62118 -0.623299 1.85584 0.240852Z"></path><path id="Vector 2" fill-rule="evenodd" style="fill:#727785" opacity="1" d="M1.32631,4.45706c0.18311,-1.34821 0.77264,-4.10064 2.7752,-5.25989c-1.08378,0.63547 -2.35614,2.49558 -2.51094,5.30646zM4.10151,-0.80282c0.03549,-0.02099 0.07098,-0.04198 0.10646,-0.06298c-0.03548,0.02099 -0.07097,0.04198 -0.10646,0.06298z"></path><path id="Vector 3" fill-rule="evenodd" style="fill:#727785" opacity="1" d="M2.19742,1.46524c-0.0967,-0.30274 -0.23796,-0.95492 0.07002,-1.40542c-0.16927,0.24566 -0.26187,0.7717 -0.00531,1.38772zM2.28311,0.03235c-0.00745,0.00667 -0.01489,0.01335 -0.01567,0.02747c0.00078,-0.01412 0.00822,-0.02079 0.01567,-0.02747z"></path><path id="Vector 5" fill-rule="evenodd" style="fill:#727785" opacity="1" d="M2.587,0.53852c0.1508,-0.0692 0.47578,-0.1872 0.74599,-0.05166c-0.14732,-0.07258 -0.43284,-0.08505 -0.7307,0.08353zM3.3465,0.49402c-0.0045,-0.00239 -0.00901,-0.00478 -0.01351,-0.00717c0.0045,0.00239 0.00901,0.00478 0.01351,0.00717z"></path><path id="Vector 4" fill-rule="evenodd" style="fill:#727785" opacity="1" d="M1.81906,2.47771c-0.17139,-0.26763 -0.47581,-0.86146 -0.2942,-1.37606c-0.10031,0.28095 -0.05434,0.81311 0.35217,1.3423zM1.53293,1.07107c-0.00548,0.00837 -0.01095,0.01673 -0.00807,0.03058c-0.00288,-0.01385 0.00259,-0.02221 0.00807,-0.03058z"></path><path id="Vector 6" fill-rule="evenodd" style="fill:#727785" opacity="1" d="M1.927,1.66354c0.28807,-0.13423 0.91713,-0.35689 1.40298,-0.1084c-0.2651,-0.13682 -0.79864,-0.1621 -1.37724,0.17034zM3.35921,1.56721c-0.00756,-0.00654 -0.01512,-0.01308 -0.02923,-0.01207c0.01411,-0.00101 0.02167,0.00553 0.02923,0.01207z"></path><path id="Vector 7" fill-rule="evenodd" style="fill:#727785" opacity="1" d="M1.5202,2.8471c0.39887,-0.17059 1.25711,-0.45943 1.95062,-0.08414c-0.38304,-0.1992 -1.1171,-0.25254 -1.9163,0.16673zM3.50761,2.78158c-0.00756,-0.00655 -0.02923,-0.01207 -0.03679,-0.01862c0.00756,0.00655 0.02923,0.01207 0.03679,0.01862z"></path></g><g opacity="1"  transform="translate(21.8291015625 1.997314453125)  rotate(0)"><path id="Vector 1" fill-rule="evenodd" style="fill:#E5E6ED" opacity="1" d="M0.667384 1.72615C0.70517 2.34532 0.989525 3.1145 1.65623 3.39522C2.32294 3.67593 3.06451 2.33571 1.99568 1.09209C1.54879 0.576056 1.13671 0.217465 -0.0267337 0.0859378C0.443916 0.525584 0.630235 1.1386 0.667384 1.72615Z"></path><path id="Vector 5" fill-rule="evenodd" style="fill:#727785" opacity="1" d="M1.53166,1.36622c-0.09575,-0.01586 -0.29247,-0.06478 -0.37941,-0.22022c0.04838,0.08354 0.18235,0.18393 0.38249,0.19942zM1.14772,1.13797c0.00183,0.00258 0.0027,0.00545 0.00453,0.00803c-0.00183,-0.00258 -0.0027,-0.00545 -0.00453,-0.00803z"></path><path id="Vector 6" fill-rule="evenodd" style="fill:#727785" opacity="1" d="M1.8927,2.11037c-0.18674,-0.03088 -0.56549,-0.12333 -0.72208,-0.40813c0.08558,0.15388 0.33948,0.33953 0.72952,0.37085zM1.16254,1.68786c0.00228,0.00456 0.00483,0.01008 0.00808,0.01438c-0.00325,-0.0043 -0.00553,-0.00886 -0.00808,-0.01438z"></path><path id="Vector 7" fill-rule="evenodd" style="fill:#727785" opacity="1" d="M2.07945,2.92141c-0.24972,-0.04891 -0.75812,-0.19095 -0.97467,-0.60036c0.11955,0.22132 0.46286,0.49139 0.98395,0.54704zM1.10478,2.32105c-0.00404,-0.00719 -0.00807,-0.01438 -0.01115,-0.02183c0.00404,0.00719 0.00711,0.01464 0.01115,0.02183z"></path></g></g><g opacity="1"  transform="translate(2.99609375 283.649658203125)  rotate(0)"><path id="Vector 8" fill-rule="evenodd" style="fill:#E9EBF2" opacity="1" d="M19.6039 16.3504C21.9439 16.3504 24.5039 15.9004 21.0239 14.0404C23.9539 14.0404 26.9239 12.4504 21.6139 11.6004C23.8139 10.2504 23.8139 5.84036 18.5039 8.04036C21.6139 2.95036 16.4939 0.580356 13.5639 5.33036C12.0939 0.750356 4.59391 -0.949644 6.79391 7.19036C3.27391 5.33036 -1.84609 9.80036 5.10391 12.1704C1.99391 12.8504 -3.31609 16.3504 8.98391 16.3504L19.6039 16.3504Z"></path><path id="Vector 9" fill-rule="evenodd" style="fill:#DFE0E5" opacity="1" d="M25.4838 15.8603C26.6738 15.8603 27.9838 15.6203 26.2038 14.6303C27.7038 14.6303 29.2138 13.7803 26.5038 13.3303C27.6338 12.6003 27.6338 10.2503 24.9238 11.4303C26.5038 8.7103 23.8938 7.4403 22.3938 9.9803C21.6538 7.5303 17.8138 6.6303 18.9438 10.9703C17.1438 9.9803 14.5338 12.3603 18.0838 13.6303C16.4938 13.9903 13.7838 15.8603 20.0638 15.8603L25.4838 15.8603Z"></path><g opacity="1"  transform="translate(0 2.86358642578125)  rotate(0)"><path id="Vector 1" fill-rule="evenodd" style="fill:#E5E6ED" opacity="1" d="M1.24938 0.944964C1.54486 1.36389 2.09023 1.78988 2.69559 1.69375C3.29127 1.60016 3.22185 0.305678 1.90533 -0.104909C1.36256 -0.283527 0.910705 -0.35153 0.0176921 0.0677883C0.545294 0.188354 0.956437 0.535718 1.24938 0.944964Z"></path><path id="Vector 5" fill-rule="evenodd" style="fill:#727785" opacity="1" d="M1.70052,0.29662c-0.07658,0.03133 -0.23828,0.08252 -0.36999,0.00982c0.07131,0.03847 0.21252,0.05172 0.36255,-0.02563zM1.32319,0.30268c0.00226,0.00198 0.00443,0.00254 0.00734,0.00376c-0.00291,-0.00122 -0.00508,-0.00179 -0.00734,-0.00376z"></path><path id="Vector 6" fill-rule="evenodd" style="fill:#727785" opacity="1" d="M2.28362,0.66274c-0.1483,0.06301 -0.46121,0.16986 -0.69835,0.03886c0.12933,0.06933 0.39321,0.08609 0.68659,-0.06883zM1.57296,0.69428c0.00361,0.00198 0.00796,0.00465 0.01231,0.00731c-0.00435,-0.00266 -0.00796,-0.00465 -0.01231,-0.00731z"></path><path id="Vector 7" fill-rule="evenodd" style="fill:#727785" opacity="1" d="M2.7898,1.15977c-0.20293,0.07786 -0.63395,0.2048 -0.97413,0.007c0.18591,0.10537 0.55545,0.14637 0.95623,-0.04947zM1.79828,1.15611c0.00581,0.00403 0.01157,0.00664 0.01739,0.01066c-0.00582,-0.00402 -0.01158,-0.00663 -0.01739,-0.01066z"></path></g><g opacity="1"  transform="translate(24.596435546875 5.6435546875)  rotate(0)"><path id="Vector 1" fill-rule="evenodd" style="fill:#E5E6ED" opacity="1" d="M0.736152 0.585106C-0.580365 0.995694 -0.649792 2.29017 -0.0541079 2.38377C0.551252 2.47989 1.09663 2.0539 1.3921 1.63498C1.68504 1.22573 2.09619 0.87837 2.62379 0.757804C1.73078 0.338485 1.27892 0.406489 0.736152 0.585106Z"></path><path id="Vector 2" fill-rule="evenodd" style="fill:#727785" opacity="1" d="M-0.58123,2.22543c0.42761,-0.52911 1.38421,-1.54016 2.52641,-1.52084c-0.62096,0.00316 -1.63963,0.46055 -2.42547,1.60923zM2.00576,0.71007c-0.01935,-0.00505 -0.04123,-0.00043 -0.06058,-0.00549c0.01935,0.00506 0.04123,0.00043 0.06058,0.00549z"></path><path id="Vector 3" fill-rule="evenodd" style="fill:#727785" opacity="1" d="M0.56641,1.19113c0.0377,-0.15666 0.13821,-0.47167 0.38467,-0.58415c-0.13272,0.0626 -0.30332,0.26461 -0.35358,0.59255zM0.96429,0.60144c-0.00375,0.00172 -0.00848,0.00363 -0.01321,0.00554c0.00473,-0.00191 0.00848,-0.00363 0.01321,-0.00554z"></path><path id="Vector 5" fill-rule="evenodd" style="fill:#727785" opacity="1" d="M0.96445,0.8962c0.08212,0.01012 0.2482,0.04455 0.32752,0.17239c-0.04339,-0.06843 -0.16007,-0.14905 -0.32876,-0.15497zM1.29653,1.07546c-0.001,-0.00283 -0.00261,-0.00438 -0.00456,-0.00687c0.00195,0.00249 0.00356,0.00404 0.00456,0.00687z"></path><path id="Vector 4" fill-rule="evenodd" style="fill:#727785" opacity="1" d="M0.14711,1.52602c-0.00391,-0.16109 0.01211,-0.49135 0.2213,-0.6635c-0.11212,0.09467 -0.22496,0.33379 -0.1891,0.66361zM0.37974,0.85377c-0.00318,0.00263 -0.00726,0.00569 -0.01133,0.00875c0.00408,-0.00306 0.00726,-0.00569 0.01133,-0.00875z"></path><path id="Vector 6" fill-rule="evenodd" style="fill:#727785" opacity="1" d="M0.39745,1.20122c0.16018,0.01757 0.48537,0.07742 0.62814,0.30766c-0.0789,-0.12373 -0.30087,-0.2674 -0.63253,-0.27576zM1.03275,1.52128c-0.00218,-0.0035 -0.00467,-0.00795 -0.00716,-0.0124c0.00249,0.00445 0.00467,0.00795 0.00716,0.0124z"></path><path id="Vector 7" fill-rule="evenodd" style="fill:#727785" opacity="1" d="M-0.08156,1.59403c0.21508,0.03135 0.65312,0.13142 0.8531,0.47033c-0.11062,-0.18283 -0.4129,-0.39933 -0.85826,-0.42452zM0.7815,2.08216c-0.00311,-0.00635 -0.00686,-0.01145 -0.00996,-0.0178c0.00311,0.00635 0.00685,0.01145 0.00996,0.0178z"></path></g><g opacity="1"  transform="translate(12.8837890625 0.778564453125)  rotate(0)"><path id="Vector 1" fill-rule="evenodd" style="fill:#E5E6ED" opacity="1" d="M0.932892 0.119014C0.0196661 1.15237 0.631056 2.29548 1.18903 2.06686C1.75658 1.83539 2.00229 1.18845 2.03793 0.677047C2.07641 0.175232 2.24806 -0.334904 2.63683 -0.711411C1.65578 -0.607305 1.30455 -0.315002 0.932892 0.119014Z"></path><path id="Vector 2" fill-rule="evenodd" style="fill:#727785" opacity="1" d="M0.65611,2.20457c0.09156,-0.67411 0.3858,-2.03452 1.37271,-2.60986c-0.52946,0.32447 -1.1637,1.24351 -1.24058,2.63314zM2.02882,-0.40529c0.01917,-0.0057 0.03548,-0.02099 0.05465,-0.0267c-0.01917,0.0057 -0.03548,0.02099 -0.05465,0.0267z"></path><path id="Vector 3" fill-rule="evenodd" style="fill:#727785" opacity="1" d="M1.10182,0.72525c-0.04894,-0.15352 -0.1262,-0.47502 0.0263,-0.69894c-0.08106,0.12232 -0.1223,0.38349 0.00464,0.69001zM1.13655,0.01473c-0.00231,0.00341 -0.00537,0.0075 -0.00843,0.01158c0.00306,-0.00408 0.00537,-0.0075 0.00843,-0.01158z"></path><path id="Vector 5" fill-rule="evenodd" style="fill:#727785" opacity="1" d="M1.28939,0.26672c0.07547,-0.0339 0.23536,-0.0905 0.36944,-0.02228c-0.07256,-0.03604 -0.21413,-0.04453 -0.36148,0.03782zM1.66629,0.24796c-0.00232,-0.0019 -0.0045,-0.00239 -0.00746,-0.00351c0.00296,0.00112 0.00514,0.00162 0.00746,0.00351z"></path><path id="Vector 4" fill-rule="evenodd" style="fill:#727785" opacity="1" d="M0.91671,1.229c-0.08682,-0.13575 -0.24425,-0.42652 -0.15454,-0.68215c-0.04684,0.13906 -0.01944,0.40205 0.18214,0.66556zM0.76734,0.5335c-0.00135,0.00389 -0.00326,0.00862 -0.00516,0.01336c0.0019,-0.00473 0.00326,-0.00862 0.00516,-0.01336z"></path><path id="Vector 6" fill-rule="evenodd" style="fill:#727785" opacity="1" d="M0.9626,0.82142c0.1461,-0.06797 0.45524,-0.18529 0.69665,-0.06235c-0.13159,-0.06494 -0.39589,-0.07279 -0.68388,0.09192zM1.6718,0.76595c-0.00368,-0.00186 -0.00812,-0.00438 -0.01255,-0.00689c0.00443,0.00251 0.00811,0.00438 0.01255,0.00689z"></path><path id="Vector 7" fill-rule="evenodd" style="fill:#727785" opacity="1" d="M0.75625,1.4056c0.20019,-0.08464 0.62669,-0.22603 0.97334,-0.0398c-0.18935,-0.09905 -0.56006,-0.12758 -0.95401,0.08165zM1.72959,1.3658c0.00595,0.00383 0.0118,0.00624 0.01775,0.01007c-0.00595,-0.00383 -0.0118,-0.00624 -0.01775,-0.01007z"></path></g><g opacity="1"  transform="translate(4.136474609375 0.4940185546875)  rotate(0)"><path id="Vector 1" fill-rule="evenodd" style="fill:#E5E6ED" opacity="1" d="M0.330403 0.856877C0.352266 1.15691 0.495929 1.53673 0.827799 1.68186C1.15309 1.81447 1.52568 1.1554 0.994551 0.539847C0.771107 0.28183 0.562095 0.112083 -0.0118817 0.0382556C0.223443 0.258079 0.318088 0.559811 0.330403 0.856877Z"></path><path id="Vector 5" fill-rule="evenodd" style="fill:#727785" opacity="1" d="M0.76021,0.68001c-0.05012,-0.00672 -0.14981,-0.02869 -0.19365,-0.1042c0.0239,0.04081 0.09255,0.08789 0.19487,0.09443zM0.56444,0.57227c0.00029,0.00096 0.00183,0.00258 0.00212,0.00354c-0.00029,-0.00096 -0.00183,-0.00258 -0.00212,-0.00354z"></path><path id="Vector 6" fill-rule="evenodd" style="fill:#727785" opacity="1" d="M0.94195,1.04712c-0.09227,-0.01522 -0.27937,-0.06259 -0.3567,-0.20525c0.04292,0.07743 0.16768,0.16981 0.35994,0.18674zM0.58525,0.84187c-0.00175,-0.00263 -0.00228,-0.00456 -0.00404,-0.00719c0.00175,0.00263 0.00228,0.00456 0.00404,0.00719z"></path><path id="Vector 7" fill-rule="evenodd" style="fill:#727785" opacity="1" d="M1.03533,1.45261c-0.12377,-0.02424 -0.37569,-0.0964 -0.48348,-0.30123c0.05916,0.1103 0.22998,0.24609 0.4875,0.27422zM0.54676,1.14033c0.00202,0.00359 0.00404,0.00719 0.00509,0.01105c-0.00105,-0.00386 -0.00307,-0.00746 -0.00509,-0.01105z"></path></g><g opacity="1"  transform="translate(21.553955078125 4.44244384765625)  rotate(0)"><path id="Vector 1" fill-rule="evenodd" style="fill:#E5E6ED" opacity="1" d="M0.542971 0.0614478C0.0118426 0.676998 0.384432 1.33607 0.709723 1.20346C1.04159 1.05833 1.18526 0.678514 1.20712 0.378478C1.21943 0.0814114 1.31408 -0.220321 1.5494 -0.440144C0.975426 -0.366317 0.766414 -0.19657 0.542971 0.0614478Z"></path><path id="Vector 2" fill-rule="evenodd" style="fill:#727785" opacity="1" d="M0.40105,1.28895c0.04584,-0.39128 0.21689,-1.18805 0.79957,-1.53687c-0.31702,0.19287 -0.68221,0.73586 -0.72085,1.55427zM1.2263,-0.26638c-0.00955,0.00297 -0.0191,0.00594 -0.02568,0.01846c0.00658,-0.01252 0.01613,-0.01549 0.02568,-0.01846z"></path><path id="Vector 3" fill-rule="evenodd" style="fill:#727785" opacity="1" d="M0.64871,0.41854c-0.02878,-0.08898 -0.07247,-0.27697 0.01886,-0.41111c-0.04913,0.07364 -0.07403,0.22688 -0.00093,0.4055zM0.66757,0.00743c0.00153,-0.00277 0.00301,-0.00412 0.00454,-0.00688c-0.00153,0.00277 -0.00301,0.00412 -0.00454,0.00688z"></path><path id="Vector 5" fill-rule="evenodd" style="fill:#727785" opacity="1" d="M0.7634,0.15675c0.04509,-0.0229 0.13965,-0.06136 0.21859,-0.02404c-0.04283,-0.02006 -0.12607,-0.01988 -0.21405,0.03278zM0.98574,0.13442c-0.00078,-0.00062 -0.00297,-0.00109 -0.00375,-0.00171c0.00078,0.00062 0.00297,0.00109 0.00375,0.00171z"></path><path id="Vector 4" fill-rule="evenodd" style="fill:#727785" opacity="1" d="M0.54434,0.71577c-0.05072,-0.07857 -0.14134,-0.24898 -0.08762,-0.4021c-0.02851,0.08381 -0.01312,0.23829 0.10351,0.39207zM0.45933,0.30585c-0.00077,0.00307 -0.00184,0.00475 -0.00261,0.00782c0.00077,-0.00307 0.00184,-0.00475 0.00261,-0.00782z"></path><path id="Vector 6" fill-rule="evenodd" style="fill:#727785" opacity="1" d="M0.56583,0.47322c0.08462,-0.03981 0.26558,-0.10693 0.41019,-0.03331c-0.07927,-0.03941 -0.23442,-0.04473 -0.40236,0.05039zM0.98342,0.44354c-0.00294,-0.00117 -0.00447,-0.00246 -0.0074,-0.00363c0.00294,0.00117 0.00447,0.00246 0.0074,0.00363z"></path><path id="Vector 7" fill-rule="evenodd" style="fill:#727785" opacity="1" d="M0.45494,0.82238c0.11567,-0.05024 0.36408,-0.13372 0.56904,-0.02619c-0.1113,-0.05728 -0.329,-0.0722 -0.55703,0.05071zM1.03444,0.8024c-0.00371,-0.00182 -0.00741,-0.00363 -0.01046,-0.00621c0.00305,0.00258 0.00675,0.0044 0.01046,0.00621z"></path></g></g><g opacity="1"  transform="translate(49.99609375 283.649658203125)  rotate(0)"><path id="Vector 8" fill-rule="evenodd" style="fill:#E9EBF2" opacity="1" d="M19.6039 16.3504C21.9439 16.3504 24.5039 15.9004 21.0239 14.0404C23.9539 14.0404 26.9239 12.4504 21.6139 11.6004C23.8139 10.2504 23.8139 5.84036 18.5039 8.04036C21.6139 2.95036 16.4939 0.580356 13.5639 5.33036C12.0939 0.750356 4.59391 -0.949644 6.79391 7.19036C3.27391 5.33036 -1.84609 9.80036 5.10391 12.1704C1.99391 12.8504 -3.31609 16.3504 8.98391 16.3504L19.6039 16.3504Z"></path><path id="Vector 9" fill-rule="evenodd" style="fill:#DFE0E5" opacity="1" d="M25.4838 15.8603C26.6738 15.8603 27.9838 15.6203 26.2038 14.6303C27.7038 14.6303 29.2138 13.7803 26.5038 13.3303C27.6338 12.6003 27.6338 10.2503 24.9238 11.4303C26.5038 8.7103 23.8938 7.4403 22.3938 9.9803C21.6538 7.5303 17.8138 6.6303 18.9438 10.9703C17.1438 9.9803 14.5338 12.3603 18.0838 13.6303C16.4938 13.9903 13.7838 15.8603 20.0638 15.8603L25.4838 15.8603Z"></path><g opacity="1"  transform="translate(0 2.86358642578125)  rotate(0)"><path id="Vector 1" fill-rule="evenodd" style="fill:#E5E6ED" opacity="1" d="M1.24938 0.944964C1.54486 1.36389 2.09023 1.78988 2.69559 1.69375C3.29127 1.60016 3.22185 0.305678 1.90533 -0.104909C1.36256 -0.283527 0.910705 -0.35153 0.0176921 0.0677883C0.545294 0.188354 0.956437 0.535718 1.24938 0.944964Z"></path><path id="Vector 5" fill-rule="evenodd" style="fill:#727785" opacity="1" d="M1.70052,0.29662c-0.07658,0.03133 -0.23828,0.08252 -0.36999,0.00982c0.07131,0.03847 0.21252,0.05172 0.36255,-0.02563zM1.32319,0.30268c0.00226,0.00198 0.00443,0.00254 0.00734,0.00376c-0.00291,-0.00122 -0.00508,-0.00179 -0.00734,-0.00376z"></path><path id="Vector 6" fill-rule="evenodd" style="fill:#727785" opacity="1" d="M2.28362,0.66274c-0.1483,0.06301 -0.46121,0.16986 -0.69835,0.03886c0.12933,0.06933 0.39321,0.08609 0.68659,-0.06883zM1.57296,0.69428c0.00361,0.00198 0.00796,0.00465 0.01231,0.00731c-0.00435,-0.00266 -0.00796,-0.00465 -0.01231,-0.00731z"></path><path id="Vector 7" fill-rule="evenodd" style="fill:#727785" opacity="1" d="M2.7898,1.15977c-0.20293,0.07786 -0.63395,0.2048 -0.97413,0.007c0.18591,0.10537 0.55545,0.14637 0.95623,-0.04947zM1.79828,1.15611c0.00581,0.00403 0.01157,0.00664 0.01739,0.01066c-0.00582,-0.00402 -0.01158,-0.00663 -0.01739,-0.01066z"></path></g><g opacity="1"  transform="translate(24.596435546875 5.6435546875)  rotate(0)"><path id="Vector 1" fill-rule="evenodd" style="fill:#E5E6ED" opacity="1" d="M0.736152 0.585106C-0.580365 0.995694 -0.649792 2.29017 -0.0541079 2.38377C0.551252 2.47989 1.09663 2.0539 1.3921 1.63498C1.68504 1.22573 2.09619 0.87837 2.62379 0.757804C1.73078 0.338485 1.27892 0.406489 0.736152 0.585106Z"></path><path id="Vector 2" fill-rule="evenodd" style="fill:#727785" opacity="1" d="M-0.58123,2.22543c0.42761,-0.52911 1.38421,-1.54016 2.52641,-1.52084c-0.62096,0.00316 -1.63963,0.46055 -2.42547,1.60923zM2.00576,0.71007c-0.01935,-0.00505 -0.04123,-0.00043 -0.06058,-0.00549c0.01935,0.00506 0.04123,0.00043 0.06058,0.00549z"></path><path id="Vector 3" fill-rule="evenodd" style="fill:#727785" opacity="1" d="M0.56641,1.19113c0.0377,-0.15666 0.13821,-0.47167 0.38467,-0.58415c-0.13272,0.0626 -0.30332,0.26461 -0.35358,0.59255zM0.96429,0.60144c-0.00375,0.00172 -0.00848,0.00363 -0.01321,0.00554c0.00473,-0.00191 0.00848,-0.00363 0.01321,-0.00554z"></path><path id="Vector 5" fill-rule="evenodd" style="fill:#727785" opacity="1" d="M0.96445,0.8962c0.08212,0.01012 0.2482,0.04455 0.32752,0.17239c-0.04339,-0.06843 -0.16007,-0.14905 -0.32876,-0.15497zM1.29653,1.07546c-0.001,-0.00283 -0.00261,-0.00438 -0.00456,-0.00687c0.00195,0.00249 0.00356,0.00404 0.00456,0.00687z"></path><path id="Vector 4" fill-rule="evenodd" style="fill:#727785" opacity="1" d="M0.14711,1.52602c-0.00391,-0.16109 0.01211,-0.49135 0.2213,-0.6635c-0.11212,0.09467 -0.22496,0.33379 -0.1891,0.66361zM0.37974,0.85377c-0.00318,0.00263 -0.00726,0.00569 -0.01133,0.00875c0.00408,-0.00306 0.00726,-0.00569 0.01133,-0.00875z"></path><path id="Vector 6" fill-rule="evenodd" style="fill:#727785" opacity="1" d="M0.39745,1.20122c0.16018,0.01757 0.48537,0.07742 0.62814,0.30766c-0.0789,-0.12373 -0.30087,-0.2674 -0.63253,-0.27576zM1.03275,1.52128c-0.00218,-0.0035 -0.00467,-0.00795 -0.00716,-0.0124c0.00249,0.00445 0.00467,0.00795 0.00716,0.0124z"></path><path id="Vector 7" fill-rule="evenodd" style="fill:#727785" opacity="1" d="M-0.08156,1.59403c0.21508,0.03135 0.65312,0.13142 0.8531,0.47033c-0.11062,-0.18283 -0.4129,-0.39933 -0.85826,-0.42452zM0.7815,2.08216c-0.00311,-0.00635 -0.00686,-0.01145 -0.00996,-0.0178c0.00311,0.00635 0.00685,0.01145 0.00996,0.0178z"></path></g><g opacity="1"  transform="translate(12.884033203125 0.77862548828125)  rotate(0)"><path id="Vector 1" fill-rule="evenodd" style="fill:#E5E6ED" opacity="1" d="M0.932648 0.118953C0.019422 1.15231 0.630812 2.29542 1.18878 2.0668C1.75634 1.83532 2.00205 1.18839 2.03768 0.676986C2.07617 0.175171 2.24781 -0.334965 2.63658 -0.711472C1.65553 -0.607366 1.30431 -0.315063 0.932648 0.118953Z"></path><path id="Vector 2" fill-rule="evenodd" style="fill:#727785" opacity="1" d="M0.65587,2.20451c0.09156,-0.67411 0.38581,-2.03452 1.37271,-2.60986c-0.52945,0.32447 -1.16369,1.24351 -1.24058,2.63314zM2.08323,-0.43205c-0.01917,0.0057 -0.03549,0.02099 -0.05466,0.0267c0.01917,-0.0057 0.03549,-0.02099 0.05466,-0.0267z"></path><path id="Vector 3" fill-rule="evenodd" style="fill:#727785" opacity="1" d="M1.10158,0.72519c-0.04894,-0.15353 -0.1262,-0.47502 0.0263,-0.69894c-0.08107,0.12232 -0.12231,0.38349 0.00464,0.69001zM1.1363,0.01467c-0.00231,0.00341 -0.00536,0.0075 -0.00842,0.01158c0.00306,-0.00408 0.00537,-0.0075 0.00842,-0.01158z"></path><path id="Vector 5" fill-rule="evenodd" style="fill:#727785" opacity="1" d="M1.28914,0.26666c0.07548,-0.03389 0.23537,-0.0905 0.36945,-0.02228c-0.07257,-0.03604 -0.21414,-0.04453 -0.36148,0.03782zM1.66605,0.2479c-0.00232,-0.0019 -0.00451,-0.00239 -0.00746,-0.00351c0.00295,0.00112 0.00514,0.00162 0.00746,0.00351z"></path><path id="Vector 4" fill-rule="evenodd" style="fill:#727785" opacity="1" d="M0.91647,1.22894c-0.08682,-0.13575 -0.24425,-0.42652 -0.15454,-0.68215c-0.04684,0.13906 -0.01944,0.40205 0.18214,0.66556zM0.76709,0.53344c-0.00135,0.00389 -0.00326,0.00862 -0.00516,0.01336c0.0019,-0.00473 0.00326,-0.00862 0.00516,-0.01336z"></path><path id="Vector 6" fill-rule="evenodd" style="fill:#727785" opacity="1" d="M0.96236,0.82136c0.1461,-0.06797 0.45523,-0.18529 0.69665,-0.06235c-0.1316,-0.06494 -0.39589,-0.07279 -0.68388,0.09192zM1.67156,0.76589c-0.00368,-0.00186 -0.00812,-0.00438 -0.01255,-0.00689c0.00443,0.00251 0.00811,0.00438 0.01255,0.00689z"></path><path id="Vector 7" fill-rule="evenodd" style="fill:#727785" opacity="1" d="M0.756,1.40554c0.20019,-0.08464 0.6267,-0.22603 0.97335,-0.0398c-0.18935,-0.09905 -0.56006,-0.12758 -0.95402,0.08165zM1.74709,1.3758c-0.00595,-0.00382 -0.01179,-0.00623 -0.01774,-0.01006c0.00595,0.00383 0.01179,0.00624 0.01774,0.01006z"></path></g><g opacity="1"  transform="translate(4.13623046875 0.49395751953125)  rotate(0)"><path id="Vector 1" fill-rule="evenodd" style="fill:#E5E6ED" opacity="1" d="M0.330647 0.856938C0.35251 1.15697 0.496173 1.53679 0.828043 1.68192C1.15333 1.81453 1.52592 1.15546 0.994795 0.539908C0.771351 0.281891 0.562339 0.112144 -0.0116375 0.0383167C0.223687 0.25814 0.318332 0.559872 0.330647 0.856938Z"></path><path id="Vector 5" fill-rule="evenodd" style="fill:#727785" opacity="1" d="M0.76046,0.68007c-0.05012,-0.00672 -0.14981,-0.02869 -0.19366,-0.1042c0.0239,0.04081 0.09255,0.08789 0.19487,0.09443zM0.5668,0.57587c-0.00029,-0.00096 -0.00183,-0.00258 -0.00212,-0.00354c0.00029,0.00096 0.00183,0.00258 0.00212,0.00354z"></path><path id="Vector 6" fill-rule="evenodd" style="fill:#727785" opacity="1" d="M0.94219,1.04718c-0.09227,-0.01522 -0.27937,-0.06259 -0.3567,-0.20525c0.04292,0.07743 0.16768,0.16981 0.35994,0.18674zM0.58146,0.83474c0.00175,0.00263 0.00228,0.00456 0.00404,0.00719c-0.00176,-0.00263 -0.00228,-0.00456 -0.00404,-0.00719z"></path><path id="Vector 7" fill-rule="evenodd" style="fill:#727785" opacity="1" d="M1.03557,1.45267c-0.12376,-0.02424 -0.37569,-0.0964 -0.48348,-0.30123c0.05916,0.1103 0.22998,0.24609 0.4875,0.27422zM0.55209,1.15144c-0.00105,-0.00386 -0.00307,-0.00746 -0.00509,-0.01105c0.00202,0.00359 0.00404,0.00719 0.00509,0.01105z"></path></g><g opacity="1"  transform="translate(21.553955078125 4.4425048828125)  rotate(0)"><path id="Vector 1" fill-rule="evenodd" style="fill:#E5E6ED" opacity="1" d="M0.542971 0.0613867C0.0118426 0.676937 0.384432 1.33601 0.709723 1.2034C1.04159 1.05827 1.18526 0.678453 1.20712 0.378417C1.21943 0.0813503 1.31408 -0.220382 1.5494 -0.440205C0.975426 -0.366378 0.766414 -0.196631 0.542971 0.0613867Z"></path><path id="Vector 2" fill-rule="evenodd" style="fill:#727785" opacity="1" d="M0.40105,1.28889c0.04584,-0.39128 0.21689,-1.18805 0.79957,-1.53687c-0.31702,0.19287 -0.68221,0.73586 -0.72085,1.55427zM1.20062,-0.24798c0.00658,-0.01252 0.01613,-0.01549 0.02568,-0.01846c-0.00955,0.00297 -0.0191,0.00594 -0.02568,0.01846z"></path><path id="Vector 3" fill-rule="evenodd" style="fill:#727785" opacity="1" d="M0.64871,0.41847c-0.02878,-0.08898 -0.07247,-0.27697 0.01886,-0.41111c-0.04913,0.07364 -0.07403,0.22688 -0.00093,0.4055zM0.67211,0.00048c-0.00153,0.00277 -0.00301,0.00412 -0.00454,0.00688c0.00153,-0.00277 0.00301,-0.00412 0.00454,-0.00688z"></path><path id="Vector 5" fill-rule="evenodd" style="fill:#727785" opacity="1" d="M0.7634,0.15669c0.04509,-0.0229 0.13965,-0.06136 0.21859,-0.02404c-0.04283,-0.02006 -0.12607,-0.01988 -0.21405,0.03278zM0.98574,0.13436c-0.00078,-0.00062 -0.00297,-0.00109 -0.00375,-0.00171c0.00078,0.00062 0.00297,0.00109 0.00375,0.00171z"></path><path id="Vector 4" fill-rule="evenodd" style="fill:#727785" opacity="1" d="M0.54434,0.71571c-0.05072,-0.07857 -0.14134,-0.24898 -0.08762,-0.4021c-0.02851,0.08381 -0.01312,0.23829 0.10351,0.39207zM0.45933,0.30579c-0.00077,0.00307 -0.00184,0.00475 -0.00261,0.00782c0.00077,-0.00307 0.00184,-0.00475 0.00261,-0.00782z"></path><path id="Vector 6" fill-rule="evenodd" style="fill:#727785" opacity="1" d="M0.56583,0.47316c0.08462,-0.03981 0.26558,-0.10693 0.41019,-0.03331c-0.07927,-0.03941 -0.23442,-0.04473 -0.40236,0.05039zM0.98342,0.44348c-0.00294,-0.00117 -0.00447,-0.00246 -0.0074,-0.00363c0.00294,0.00117 0.00447,0.00246 0.0074,0.00363z"></path><path id="Vector 7" fill-rule="evenodd" style="fill:#727785" opacity="1" d="M0.45494,0.82232c0.11567,-0.05024 0.36408,-0.13373 0.56904,-0.02619c-0.1113,-0.05728 -0.329,-0.0722 -0.55703,0.05071zM1.03444,0.80234c-0.00371,-0.00182 -0.00741,-0.00363 -0.01046,-0.00621c0.00305,0.00258 0.00675,0.00439 0.01046,0.00621z"></path></g></g><g opacity="1"  transform="translate(55 268.54998779296875)  rotate(0)"><path id="Rectangle 455" fill-rule="evenodd" style="fill:#FFFFFF" opacity="1" d="M5.48999 27.62L27.09 27.62L18.24 0L14.34 0L5.48999 27.62Z"></path><g opacity="1"  transform="translate(0 0)  rotate(0)"><path id="Subtract" fill-rule="evenodd" style="fill:#809FFF" opacity="1" d="M27.09,27.62h-21.60001l1.92893,-6.02h17.74218zM24.1389,18.41h-15.69784l1.30411,-4.07h13.08963zM21.8127,11.15h-11.0454l3.5727,-11.15h3.9z"></path><path id="Rectangle 455" fill-rule="evenodd" style="fill:#809FFF" opacity="1" d="M0 30.1L32.58 30.1L32.58 27.62L0 27.62L0 30.1Z"></path><path id="Intersect" fill-rule="evenodd" style="fill:#000000" opacity="0.2" d="M26.2377,24.96l0.8523,2.66h-21.60001l0.85232,-2.66z"></path></g><g opacity="1"  transform="translate(0 0)  rotate(0)"><g opacity="1"  transform="translate(0 0)  rotate(0)"><path id="Intersect" fill-rule="evenodd" style="fill:#000000" opacity="0.2" d="M26.2377,24.96l0.8523,2.66h-21.60001l0.85232,-2.66z"></path></g><path id="Ellipse 44" fill-rule="evenodd" style="fill:#FFFFFF" opacity="0.2" d="M-4.24986 -39.84C-22.5399 -39.84 -37.3599 -25.02 -37.3599 -6.73003C-37.3599 11.56 -22.5399 26.38 -4.24986 26.38C14.0401 26.38 28.8601 11.56 28.8601 -6.73003C28.8601 -25.02 14.0401 -39.84 -4.24986 -39.84Z"></path></g></g><path  id="Vector 9" style="fill:#20242E; opacity:1;" d="M-50,298h400c0.06533,0 0.13067,0.00333 0.196,0.01c0.06533,0.006 0.13,0.01533 0.194,0.028c0.06467,0.01333 0.12833,0.02933 0.191,0.048c0.06267,0.01933 0.124,0.04133 0.184,0.066c0.06067,0.02533 0.12,0.05333 0.178,0.084c0.05733,0.03067 0.11333,0.06433 0.168,0.101c0.05467,0.03667 0.10733,0.07567 0.158,0.117c0.05067,0.04133 0.099,0.08533 0.145,0.132c0.04667,0.046 0.09067,0.09433 0.132,0.145c0.04133,0.05067 0.08033,0.10333 0.117,0.158c0.03667,0.05467 0.07033,0.11067 0.101,0.168c0.03067,0.058 0.05867,0.11733 0.084,0.178c0.02467,0.06 0.04667,0.12133 0.066,0.184c0.01867,0.06267 0.03467,0.12633 0.048,0.191c0.01267,0.064 0.022,0.12867 0.028,0.194c0.00667,0.06533 0.01,0.13067 0.01,0.196c0,0.06533 -0.00333,0.13067 -0.01,0.196c-0.006,0.06533 -0.01533,0.13 -0.028,0.194c-0.01333,0.06467 -0.02933,0.12833 -0.048,0.191c-0.01933,0.06267 -0.04133,0.124 -0.066,0.184c-0.02533,0.06067 -0.05333,0.12 -0.084,0.178c-0.03067,0.05733 -0.06433,0.11333 -0.101,0.168c-0.03667,0.05467 -0.07567,0.10733 -0.117,0.158c-0.04133,0.05067 -0.08533,0.099 -0.132,0.145c-0.046,0.04667 -0.09433,0.09067 -0.145,0.132c-0.05067,0.04133 -0.10333,0.08033 -0.158,0.117c-0.05467,0.036 -0.11067,0.06967 -0.168,0.101c-0.058,0.03067 -0.11733,0.05867 -0.178,0.084c-0.06,0.02467 -0.12133,0.04667 -0.184,0.066c-0.06267,0.01867 -0.12633,0.03467 -0.191,0.048c-0.064,0.01267 -0.12867,0.022 -0.194,0.028c-0.06533,0.00667 -0.13067,0.01 -0.196,0.01h-400c-0.06553,0 -0.13087,-0.00333 -0.196,-0.01c-0.0652,-0.006 -0.12993,-0.01533 -0.1942,-0.028c-0.0642,-0.01333 -0.12767,-0.02933 -0.1904,-0.048c-0.06267,-0.01933 -0.12427,-0.04133 -0.1848,-0.066c-0.06047,-0.02533 -0.1196,-0.05333 -0.1774,-0.084c-0.05773,-0.03133 -0.11383,-0.065 -0.1683,-0.101c-0.05447,-0.03667 -0.10703,-0.07567 -0.1577,-0.117c-0.0506,-0.04133 -0.09907,-0.08533 -0.1454,-0.132c-0.04633,-0.046 -0.09027,-0.09433 -0.1318,-0.145c-0.04153,-0.05067 -0.0805,-0.10333 -0.1169,-0.158c-0.0364,-0.05467 -0.07003,-0.11067 -0.1009,-0.168c-0.03093,-0.058 -0.05893,-0.11733 -0.084,-0.178c-0.02507,-0.06 -0.0471,-0.12133 -0.0661,-0.184c-0.019,-0.06267 -0.0349,-0.12633 -0.0477,-0.191c-0.01273,-0.064 -0.02233,-0.12867 -0.0288,-0.194c-0.0064,-0.06533 -0.0096,-0.13067 -0.0096,-0.196c0,-0.06533 0.0032,-0.13067 0.0096,-0.196c0.00647,-0.06533 0.01607,-0.13 0.0288,-0.194c0.0128,-0.06467 0.0287,-0.12833 0.0477,-0.191c0.019,-0.06267 0.04103,-0.124 0.0661,-0.184c0.02507,-0.06067 0.05307,-0.12 0.084,-0.178c0.03087,-0.05733 0.0645,-0.11333 0.1009,-0.168c0.0364,-0.05467 0.07537,-0.10733 0.1169,-0.158c0.04153,-0.05067 0.08547,-0.099 0.1318,-0.145c0.04633,-0.04667 0.0948,-0.09067 0.1454,-0.132c0.05067,-0.04133 0.10323,-0.08033 0.1577,-0.117c0.05447,-0.03667 0.11057,-0.07033 0.1683,-0.101c0.0578,-0.03067 0.11693,-0.05867 0.1774,-0.084c0.06053,-0.02467 0.12213,-0.04667 0.1848,-0.066c0.06273,-0.01867 0.1262,-0.03467 0.1904,-0.048c0.06427,-0.01267 0.129,-0.022 0.1942,-0.028c0.06513,-0.00667 0.13047,-0.01 0.196,-0.01z"></path><g opacity="1"  transform="translate(71 137)  rotate(0)"><g opacity="1"  transform="translate(20 39)  rotate(0)"><path id="Rectangle 471" fill-rule="evenodd" style="fill:#334680" opacity="1" d="M0 122L8 122L8 0L0 0L0 122Z"></path></g><g opacity="1"  transform="translate(128 39)  rotate(0)"><path id="Rectangle 471" fill-rule="evenodd" style="fill:#334680" opacity="1" d="M0 122L8 122L8 0L0 0L0 122Z"></path></g><g opacity="1"  transform="translate(0 50)  rotate(0)"><path id="Rectangle 472" fill-rule="evenodd" style="fill:#809FFF" opacity="1" d="M0 22.57L158 22.57L158 0L0 0L0 22.57Z"></path><path id="Subtract" fill-rule="evenodd" style="fill:#FFFFFF" opacity="1" d="M23.0796,0h27.8398l-8.909,22.57h-27.8398zM10.0996,0l-8.90904,22.57h-1.19056v-22.57zM63.8994,0h27.8401l-8.909,22.57h-27.8401l8.909,-22.57zM104.72,0h27.84l-8.91,22.57h-27.8395l8.9095,-22.57zM145.54,0h12.46v22.57h-21.37l8.91,-22.57z"></path></g><g opacity="1"  transform="translate(0 91)  rotate(0)"><path id="Rectangle 472" fill-rule="evenodd" style="fill:#809FFF" opacity="1" d="M0 22.57L158 22.57L158 0L0 0L0 22.57Z"></path><path id="Subtract" fill-rule="evenodd" style="fill:#FFFFFF" opacity="1" d="M23.0796,0h27.8398l-8.909,22.57h-27.8398zM10.0996,0l-8.90904,22.57h-1.19056v-22.57zM63.8994,0h27.8401l-8.909,22.57h-27.8401l8.909,-22.57zM104.72,0h27.84l-8.91,22.57h-27.8395l8.9095,-22.57zM145.54,0h12.46v22.57h-21.37l8.91,-22.57z"></path></g><g opacity="1"  transform="translate(9.989990234375 0)  rotate(0)"><path id="Polygon 1" fill-rule="evenodd" style="fill:#FFFFFF" opacity="1" d="M26.97 102.05L109.09 102.05C117.03 102.06 122 93.45 118.02 86.58L76.96 15.46C72.99 8.58 63.07 8.58 59.1 15.46L18.04 86.58C14.06 93.45 19.03 102.06 26.97 102.05Z"></path><path  id="Polygon 1" style="fill:#2F63FF; opacity:1;" d="M26.97,98.05h82.12c4.866,0.0061 7.905,-5.2591 5.469,-9.4649l-41.0631,-71.1251c-2.4289,-4.2093 -8.5029,-4.2093 -10.9313,-0.0008l-41.0605,71.1208c-2.44,4.2117 0.5993,9.4761 5.4609,9.47zM26.975,106.05c-11.0297,0.014 -17.92515,-11.9313 -12.3991,-21.47l41.0595,-71.1192c5.5072,-9.54393 19.282,-9.54393 24.7887,-0.0008l41.0569,71.1149c5.529,9.5429 -1.367,21.4891 -12.391,21.4751h-82.12z"></path><g opacity="1" transform="translate(34.010009765625 57.010009765625)  rotate(0)"><a xlink:href="https://" xlink:title="跳转" target="_blank"><text><tspan x="0" y="34.671875" font-size="40" line-height="42" fill="#2F63FF" opacity="1" font-family="Roboto-Regular" font-weight="Regular" letter-spacing="0" text-decoration="underline">403</tspan></text></a></g><g opacity="1" transform="translate(53.199951171875 21)  rotate(0)"><a xlink:href="https://" xlink:title="跳转" target="_blank"><text><tspan x="0" y="34.08" font-size="30" line-height="42" fill="#2F63FF" opacity="1" font-family="SourceHanSansCN-Regular" font-weight="Regular" letter-spacing="0" text-decoration="underline">！</tspan></text></a></g></g></g></g></svg>
