<svg xmlns="http://www.w3.org/2000/svg" xmlns:xlink="http://www.w3.org/1999/xlink" width="679.2333374023438" height="395.4059295654297" viewBox="0 0 679.2333374023438 395.4059295654297" fill="none"><g opacity="1"  transform="translate(0 0)  rotate(0)"><g opacity="1"  transform="translate(0 19.34527587890625)  rotate(0)"><path id="Fill 1" fill-rule="evenodd" style="fill:#C3E4FF" opacity="1" d="M162.688 0.198257C154.568 0.198257 147.978 6.78826 147.978 14.9283C147.978 23.0583 154.568 29.6583 162.688 29.6583C170.808 29.6583 177.398 23.0583 177.398 14.9283C177.398 6.78826 170.808 0.198257 162.688 0.198257Z"></path><path id="Fill 3" fill-rule="evenodd" style="fill:#C3E4FF" opacity="1" d="M573.735 155.208C565.615 155.208 559.025 161.808 559.025 169.938C559.025 178.068 565.615 184.668 573.735 184.668C581.855 184.668 588.445 178.068 588.445 169.938C588.445 161.808 581.855 155.208 573.735 155.208Z"></path><path id="Fill 5" fill-rule="evenodd" style="fill:#D6EEFF" opacity="1" d="M643.698 0.198257C635.578 0.198257 628.988 6.78826 628.988 14.9283C628.988 23.0583 635.578 29.6583 643.698 29.6583C651.818 29.6583 658.408 23.0583 658.408 14.9283C658.408 6.78826 651.818 0.198257 643.698 0.198257Z"></path><g opacity="1"  transform="translate(0 134.58522033691406)  rotate(0)"><mask id="mask-0" fill="white"><path d="M0 29.5331L29.42 29.5331L29.42 0.0731506L0 0.0731506L0 29.5331Z"  ></path></mask><g mask="url(#mask-0)"></g><g mask="url(#mask-0)"><path id="Fill 7" fill-rule="evenodd" style="fill:#D6EEFF" opacity="1" d="M14.7099 0.0731506C6.58992 0.0731506 -7.62939e-05 6.66315 -7.62939e-05 14.8032C-7.62939e-05 22.9332 6.58992 29.5331 14.7099 29.5331C22.8299 29.5331 29.4199 22.9332 29.4199 14.8032C29.4199 6.66315 22.8299 0.0731506 14.7099 0.0731506Z"></path></g></g><path id="Fill 10" fill-rule="evenodd" style="fill:#C3E4FF" opacity="1" d="M301.995 242.199C297.325 242.208 293.175 244.409 290.485 247.818C288.505 250.318 287.335 253.488 287.335 256.928C287.335 265.059 293.915 271.659 302.045 271.659C302.655 271.659 303.255 271.618 303.845 271.548C310.445 270.738 315.685 265.559 316.605 258.999C316.705 258.328 316.745 257.629 316.745 256.928C316.745 248.788 310.165 242.199 301.995 242.199Z"></path><path id="Fill 12" fill-rule="evenodd" style="fill:#D6EEFF" opacity="1" d="M313.759 258.599C308.089 258.599 303.499 263.208 303.499 268.879C303.499 269.799 303.619 270.699 303.849 271.549C310.439 270.739 315.679 265.559 316.609 258.999C315.699 258.739 314.749 258.599 313.759 258.599Z"></path><path id="Fill 14" fill-rule="evenodd" style="fill:#D6EEFF" opacity="1" d="M301.991 242.198C297.321 242.218 293.171 244.408 290.481 247.818C291.711 249.028 293.401 249.788 295.261 249.788C296.341 249.788 297.361 249.538 298.271 249.088C299.511 248.468 300.531 247.488 301.201 246.288C301.731 245.308 302.041 244.188 302.041 243.008C302.041 242.728 302.021 242.458 301.991 242.198Z"></path><path id="Fill 16" fill-rule="evenodd" style="fill:#D6EEFF" opacity="1" d="M300.883 246.265C299.434 246.265 298.263 247.435 298.263 248.885C298.263 250.335 299.434 251.505 300.883 251.505C302.323 251.505 303.503 250.335 303.503 248.885C303.503 247.435 302.323 246.265 300.883 246.265Z"></path></g><g opacity="1"  transform="translate(4.3196563720703125 0)  rotate(0)"><g opacity="1"  transform="translate(153.24842834472656 139.0636444091797)  rotate(0)"><mask id="mask-1" fill="white"><path d="M188.689 98.5005L197.679 76.0406L9.09941 0.280548L0.109406 22.7405L188.689 98.5005Z"  ></path></mask><g mask="url(#mask-1)"></g><g mask="url(#mask-1)"><path id="Fill 19" fill-rule="evenodd" fill="url(#linear_0)" opacity="1" d="M188.689 98.5005L197.679 76.0406L9.09941 0.280548L0.109406 22.7405L188.689 98.5005Z"></path></g></g><g opacity="1"  transform="translate(286.7877655029297 136.24205017089844)  rotate(0)"><mask id="mask-2" fill="white"><path d="M157.177 81.6863L164.527 63.3263L7.51733 0.256348L0.167328 18.6163L157.177 81.6863Z"  ></path></mask><g mask="url(#mask-2)"></g><g mask="url(#mask-2)"><path id="Fill 22" fill-rule="evenodd" fill="url(#linear_1)" opacity="1" d="M157.177 81.6863L164.527 63.3263L7.51733 0.256348L0.167328 18.6163L157.177 81.6863Z"></path></g></g><g opacity="1"  transform="translate(0 0)  rotate(0)"><path id="Fill 25" fill-rule="evenodd" style="fill:#D6EEFF" opacity="1" d="M451.318 199.567C446.258 197.537 440.508 199.997 438.478 205.067C436.448 210.147 438.908 215.897 443.968 217.937C449.028 219.967 454.778 217.497 456.808 212.437C458.828 207.357 456.378 201.597 451.318 199.567Z"></path><path id="Fill 27" fill-rule="evenodd" style="fill:#D6EEFF" opacity="1" d="M350.926 215.095C344.736 212.615 337.706 215.625 335.226 221.825C332.746 228.035 335.756 235.075 341.946 237.565C348.136 240.045 355.166 237.035 357.646 230.835C360.126 224.625 357.116 217.585 350.926 215.095Z"></path><path id="Fill 29" fill-rule="evenodd" style="fill:#AAD5FF" opacity="1" d="M349.019 219.86C345.459 218.43 341.409 220.17 339.979 223.74C338.549 227.31 340.279 231.37 343.849 232.8C347.409 234.23 351.459 232.49 352.889 228.92C354.319 225.35 352.589 221.29 349.019 219.86Z"></path><path id="Fill 31" fill-rule="evenodd" style="fill:#AAD5FF" opacity="1" d="M449.612 203.81C446.892 202.72 443.802 204.05 442.712 206.77C441.622 209.5 442.942 212.6 445.662 213.69C448.392 214.78 451.482 213.46 452.572 210.73C453.662 208 452.342 204.91 449.612 203.81Z"></path><path id="Fill 33" fill-rule="evenodd" style="fill:#D6EEFF" opacity="1" d="M154.752 193.603C154.752 202.063 152.492 208.913 149.712 208.913C152.492 208.913 154.752 215.773 154.752 224.233C154.752 215.773 157.002 208.913 159.782 208.913C157.002 208.913 154.752 202.063 154.752 193.603Z"></path><path id="Fill 35" fill-rule="evenodd" style="fill:#C3E4FF" opacity="1" d="M65.3034 238.074C63.3034 238.074 61.6734 239.704 61.6734 241.714C61.6734 243.724 63.3034 245.354 65.3034 245.354C67.3134 245.354 68.9334 243.724 68.9334 241.714C68.9334 239.704 67.3134 238.074 65.3034 238.074Z"></path><path id="Fill 37" fill-rule="evenodd" style="fill:#C3E4FF" opacity="1" d="M229.489 229.659C227.489 229.659 225.859 231.289 225.859 233.299C225.859 235.309 227.489 236.939 229.489 236.939C231.499 236.939 233.119 235.309 233.119 233.299C233.119 231.289 231.499 229.659 229.489 229.659Z"></path><path id="Fill 39" fill-rule="evenodd" style="fill:#AAD5FF" opacity="1" d="M194.305 108.135C190.915 108.135 188.165 110.895 188.165 114.295C188.165 117.695 190.915 120.445 194.305 120.445C197.705 120.445 200.455 117.695 200.455 114.295C200.455 110.895 197.705 108.135 194.305 108.135Z"></path><path id="Fill 41" fill-rule="evenodd" style="fill:#D6EEFF" opacity="1" d="M243.465 19.5061C241.465 19.5061 239.835 21.1361 239.835 23.1461C239.835 25.1561 241.465 26.7861 243.465 26.7861C245.475 26.7861 247.095 25.1561 247.095 23.1461C247.095 21.1361 245.475 19.5061 243.465 19.5061Z"></path><path id="Fill 43" fill-rule="evenodd" style="fill:#D6EEFF" opacity="1" d="M154.746 56.12C152.746 56.12 151.116 57.75 151.116 59.76C151.116 61.77 152.746 63.4 154.746 63.4C156.756 63.4 158.376 61.77 158.376 59.76C158.376 57.75 156.756 56.12 154.746 56.12Z"></path><path id="Fill 45" fill-rule="evenodd" style="fill:#D6EEFF" opacity="1" d="M3.84893 21.78C1.84893 21.78 0.218933 23.41 0.218933 25.42C0.218933 27.43 1.84893 29.06 3.84893 29.06C5.85893 29.06 7.47893 27.43 7.47893 25.42C7.47893 23.41 5.85893 21.78 3.84893 21.78Z"></path><path id="Fill 47" fill-rule="evenodd" style="fill:#D6EEFF" opacity="1" d="M621.079 10.8604C619.079 10.8604 617.449 12.4904 617.449 14.5004C617.449 16.5104 619.079 18.1404 621.079 18.1404C623.089 18.1404 624.709 16.5104 624.709 14.5004C624.709 12.4904 623.089 10.8604 621.079 10.8604Z"></path><path id="Fill 49" fill-rule="evenodd" style="fill:#D6EEFF" opacity="1" d="M664.141 73.5878C662.141 73.5878 660.511 75.2178 660.511 77.2278C660.511 79.2378 662.141 80.8678 664.141 80.8678C666.151 80.8678 667.771 79.2378 667.771 77.2278C667.771 75.2178 666.151 73.5878 664.141 73.5878Z"></path><path id="Fill 51" fill-rule="evenodd" style="fill:#D6EEFF" opacity="1" d="M475.817 123.521C473.817 123.521 472.187 125.151 472.187 127.161C472.187 129.171 473.817 130.801 475.817 130.801C477.827 130.801 479.447 129.171 479.447 127.161C479.447 125.151 477.827 123.521 475.817 123.521Z"></path><path id="Fill 53" fill-rule="evenodd" style="fill:#D6EEFF" opacity="1" d="M487.512 18.1403C485.512 18.1403 483.882 19.7703 483.882 21.7803C483.882 23.7903 485.512 25.4203 487.512 25.4203C489.522 25.4203 491.142 23.7903 491.142 21.7803C491.142 19.7703 489.522 18.1403 487.512 18.1403Z"></path><path id="Fill 55" fill-rule="evenodd" style="fill:#C3E4FF" opacity="1" d="M643.046 241.233C641.046 241.233 639.416 242.863 639.416 244.873C639.416 246.883 641.046 248.513 643.046 248.513C645.056 248.513 646.676 246.883 646.676 244.873C646.676 242.863 645.056 241.233 643.046 241.233Z"></path><path id="Fill 57" fill-rule="evenodd" style="fill:#E8F6FF" opacity="1" d="M301.508 7.0856C301.508 17.2056 298.808 25.4156 295.478 25.4156C298.808 25.4156 301.508 33.6256 301.508 43.7556C301.508 33.6256 304.208 25.4156 307.538 25.4156C304.208 25.4156 301.508 17.2056 301.508 7.0856Z"></path><path id="Fill 59" fill-rule="evenodd" style="fill:#E8F6FF" opacity="1" d="M491.15 226.329C491.15 238.579 487.88 248.509 483.85 248.509C487.88 248.509 491.15 258.449 491.15 270.699C491.15 258.449 494.41 248.509 498.44 248.509C494.41 248.509 491.15 238.579 491.15 226.329Z"></path><path id="Fill 61" fill-rule="evenodd" style="fill:#D6EEFF" opacity="1" d="M203.866 270.697C203.866 281.957 200.866 291.097 197.156 291.097C200.866 291.097 203.866 300.227 203.866 311.487C203.866 300.227 206.866 291.097 210.576 291.097C206.866 291.097 203.866 281.957 203.866 270.697Z"></path><path id="Fill 63" fill-rule="evenodd" style="fill:#D6EEFF" opacity="1" d="M658.423 149.195C658.423 158.795 655.863 166.585 652.703 166.585C655.863 166.585 658.423 174.375 658.423 183.975C658.423 174.375 660.983 166.585 664.143 166.585C660.983 166.585 658.423 158.795 658.423 149.195Z"></path><path id="Fill 65" fill-rule="evenodd" style="fill:#D6EEFF" opacity="1" d="M376.55 300.417C374.83 300.417 373.44 301.807 373.44 303.527C373.44 305.247 374.83 306.647 376.55 306.647C378.26 306.647 379.65 305.247 379.65 303.527C379.65 301.807 378.26 300.417 376.55 300.417Z"></path><path id="Fill 67" fill-rule="evenodd" style="fill:#D6EEFF" opacity="1" d="M334.378 81.6381C331.948 81.6381 329.978 83.6081 329.978 86.0481C329.978 88.4881 331.948 90.4581 334.378 90.4581C336.808 90.4581 338.778 88.4881 338.778 86.0481C338.778 83.6081 336.808 81.6381 334.378 81.6381Z"></path><path id="Fill 69" fill-rule="evenodd" style="fill:#C3E4FF" opacity="1" d="M267.151 61.2366C265.651 61.2366 264.441 62.4566 264.441 63.9566C264.441 65.4566 265.651 66.6766 267.151 66.6766C268.651 66.6766 269.871 65.4566 269.871 63.9566C269.871 62.4566 268.651 61.2366 267.151 61.2366Z"></path><path id="Fill 71" fill-rule="evenodd" style="fill:#D6EEFF" opacity="1" d="M375.848 21.7576C371.448 21.7576 367.888 25.3276 367.888 29.7376C367.888 34.1376 371.448 37.7176 375.848 37.7176C380.248 37.7176 383.808 34.1376 383.808 29.7376C383.808 25.3276 380.248 21.7576 375.848 21.7576Z"></path><path id="Fill 73" fill-rule="evenodd" style="fill:#AAD5FF" opacity="1" d="M588.193 302.627C585.983 302.627 584.183 304.427 584.183 306.647C584.183 308.867 585.983 310.667 588.193 310.667C590.403 310.667 592.203 308.867 592.203 306.647C592.203 304.427 590.403 302.627 588.193 302.627Z"></path><path id="Fill 75" fill-rule="evenodd" style="fill:#AAD5FF" opacity="1" d="M130.223 295.364C128.833 295.364 127.703 296.494 127.703 297.894C127.703 299.284 128.833 300.414 130.223 300.414C131.613 300.414 132.743 299.284 132.743 297.894C132.743 296.494 131.613 295.364 130.223 295.364Z"></path><path id="Fill 77" fill-rule="evenodd" style="fill:#AAD5FF" opacity="1" d="M401.272 137.148C399.882 137.148 398.752 138.278 398.752 139.678C398.752 141.068 399.882 142.198 401.272 142.198C402.662 142.198 403.792 141.068 403.792 139.678C403.792 138.278 402.662 137.148 401.272 137.148Z"></path><path id="Fill 79" fill-rule="evenodd" style="fill:#D6EEFF" opacity="1" d="M291 164.06C289.61 164.06 288.48 165.19 288.48 166.59C288.48 167.98 289.61 169.11 291 169.11C292.39 169.11 293.52 167.98 293.52 166.59C293.52 165.19 292.39 164.06 291 164.06Z"></path><path id="Fill 81" fill-rule="evenodd" style="fill:#D6EEFF" opacity="1" d="M206.966 120.611C205.576 120.611 204.446 121.741 204.446 123.141C204.446 124.531 205.576 125.661 206.966 125.661C208.356 125.661 209.486 124.531 209.486 123.141C209.486 121.741 208.356 120.611 206.966 120.611Z"></path><path id="Fill 83" fill-rule="evenodd" style="fill:#D6EEFF" opacity="1" d="M10.6782 257.553C9.2882 257.553 8.1582 258.683 8.1582 260.083C8.1582 261.473 9.2882 262.603 10.6782 262.603C12.0682 262.603 13.1982 261.473 13.1982 260.083C13.1982 258.683 12.0682 257.553 10.6782 257.553Z"></path><path id="Fill 85" fill-rule="evenodd" style="fill:#D6EEFF" opacity="1" d="M180.967 164.06C179.577 164.06 178.447 165.19 178.447 166.59C178.447 167.98 179.577 169.11 180.967 169.11C182.357 169.11 183.487 167.98 183.487 166.59C183.487 165.19 182.357 164.06 180.967 164.06Z"></path><path id="Fill 87" fill-rule="evenodd" style="fill:#D6EEFF" opacity="1" d="M71.9981 180.91C70.3081 180.91 68.9381 182.28 68.9381 183.98C68.9381 185.67 70.3081 187.04 71.9981 187.04C73.6881 187.04 75.0581 185.67 75.0581 183.98C75.0581 182.28 73.6881 180.91 71.9981 180.91Z"></path><g opacity="1"  transform="translate(10.457901000976562 0)  rotate(0)"><mask id="mask-3" fill="white"><path d="M0.214432 128.318L127.954 128.318L127.954 0.308365L0.214432 0.308365L0.214432 128.318Z"  ></path></mask><g mask="url(#mask-3)"></g><g mask="url(#mask-3)"><path id="Fill 89" fill-rule="evenodd" style="fill:#D6EEFF" opacity="1" d="M127.424 72.4582C131.914 37.3882 107.194 5.32824 72.2044 0.828243C37.2244 -3.66176 5.23443 21.1082 0.734432 56.1682C-3.74557 91.2282 20.9744 123.288 55.9544 127.788C90.9444 132.288 122.934 107.518 127.424 72.4582Z"></path></g></g><path id="Fill 92" fill-rule="evenodd" style="fill:#E8F6FF" opacity="1" d="M108.097 28.9251C108.777 23.6251 105.037 18.7651 99.7365 18.0851C94.4365 17.4051 89.5965 21.1551 88.9165 26.4651C88.2365 31.7751 91.9765 36.6251 97.2765 37.3051C102.577 37.9951 107.417 34.2351 108.097 28.9251Z"></path><path id="Fill 94" fill-rule="evenodd" style="fill:#E8F6FF" opacity="1" d="M102.297 48.7916C102.567 46.6716 101.077 44.7316 98.967 44.4616C96.8471 44.1916 94.9171 45.6916 94.647 47.8016C94.3771 49.9216 95.8671 51.8516 97.9871 52.1316C100.097 52.4016 102.027 50.9016 102.297 48.7916Z"></path><path id="Fill 96" fill-rule="evenodd" style="fill:#E8F6FF" opacity="1" d="M59.171 99.7665C59.441 97.6465 57.951 95.7065 55.841 95.4365C53.721 95.1665 51.791 96.6665 51.521 98.7765C51.251 100.896 52.741 102.826 54.861 103.106C56.971 103.376 58.901 101.876 59.171 99.7665Z"></path><path id="Fill 98" fill-rule="evenodd" style="fill:#C3E4FF" opacity="1" d="M70.4818 66.4213C42.9118 74.8813 35.2818 48.3913 67.3218 37.8713C87.1918 31.3613 84.9218 13.3313 80.3318 0.58131C46.2718 -2.54869 15.5818 21.8913 11.1918 56.1713C9.76183 67.3813 11.3118 78.2913 15.2318 88.0913C16.5718 86.2213 17.6018 84.4013 18.1218 82.9513C20.4518 76.4413 19.8418 63.0713 34.4418 74.9813C54.3918 91.2413 70.4818 66.4213 70.4818 66.4213Z"></path><path id="Fill 100" fill-rule="evenodd" style="fill:#C3E4FF" opacity="1" d="M121.213 46.6778C107.933 39.3478 105.213 59.8778 115.983 67.0778C122.063 71.1378 127.433 78.5678 119.913 83.9878C111.673 89.9378 97.5226 63.7278 84.4426 73.3678C66.8726 86.3078 97.6826 105.738 85.9226 111.538C78.5726 115.168 73.3026 104.988 73.3026 104.988C73.3026 104.988 57.2426 119.978 42.6926 107.478C37.8526 103.318 31.1326 102.838 27.6126 107.718C37.4326 118.398 50.9226 125.798 66.4126 127.788C101.403 132.288 133.403 107.508 137.893 72.4578C139.143 62.6578 138.113 53.0878 135.203 44.2878C133.123 47.7278 129.003 50.9778 121.213 46.6778Z"></path><path id="Fill 102" fill-rule="evenodd" style="fill:#D6EEFF" opacity="1" d="M554.472 22.6977C519.562 16.6777 486.392 40.1677 480.392 75.1577C474.382 110.148 497.822 143.378 532.742 149.398C567.652 155.418 600.822 131.928 606.822 96.9377C612.832 61.9477 589.382 28.7177 554.472 22.6977Z"></path><path id="Fill 104" fill-rule="evenodd" style="fill:#E8F6FF" opacity="1" d="M606.416 72.9352C592.236 73.4552 572.836 71.0552 554.786 58.3552C533.526 43.4152 512.446 39.8052 499.706 39.1852C497.336 41.4052 495.136 43.8152 493.116 46.3852C505.266 53.4352 507.776 65.7452 532.956 78.4552C559.786 91.9852 593.976 87.2852 607.746 84.5552C607.646 80.6052 607.206 76.7152 606.416 72.9352Z"></path><path id="Fill 106" fill-rule="evenodd" style="fill:#E8F6FF" opacity="1" d="M483.891 62.5479C482.331 66.5479 481.141 70.7579 480.391 75.1579C479.731 78.9479 479.441 82.7079 479.451 86.4279C504.871 96.4279 522.321 89.7579 523.261 89.3779C513.551 92.9279 492.941 72.3279 483.891 62.5479Z"></path><path id="Fill 108" fill-rule="evenodd" style="fill:#E8F6FF" opacity="1" d="M543.613 96.0413C521.773 101.961 495.563 103.161 481.813 103.351C483.453 109.221 485.923 114.801 489.103 119.931C498.683 120.781 510.493 120.581 523.303 117.641C546.113 112.411 576.533 121.661 592.553 127.611C597.123 122.211 600.843 116.011 603.463 109.181C587.653 103.131 566.003 89.9713 543.613 96.0413Z"></path><path id="Fill 110" fill-rule="evenodd" style="fill:#E8F6FF" opacity="1" d="M525.841 132.021C536.751 130.101 556.951 136.961 572.741 143.321C575.821 141.741 578.781 139.911 581.571 137.861C549.901 127.151 527.191 131.731 525.841 132.021Z"></path><path id="Fill 112" fill-rule="evenodd" style="fill:#E8F6FF" opacity="1" d="M581.488 34.1625C553.058 28.1425 532.728 26.1525 543.988 36.2825C564.438 54.6925 589.778 58.7425 602.068 59.5725C597.518 49.5225 590.428 40.7325 581.488 34.1625Z"></path><path id="Fill 114" fill-rule="evenodd" style="fill:#E8F6FF" opacity="1" d="M497.874 131.12C506.974 140.41 518.954 147.03 532.744 149.4C538.864 150.46 544.944 150.6 550.824 149.94C531.314 135.2 508.984 131.84 497.874 131.12Z"></path><path id="Fill 116" fill-rule="evenodd" style="fill:#E8F6FF" opacity="1" d="M523.39 25.0329C519.8 26.2329 516.34 27.7429 513.05 29.5329C519.42 33.1229 527.72 34.0629 529.76 34.2429C528.24 33.6929 525.7 29.4829 523.39 25.0329Z"></path><path id="Fill 118" fill-rule="evenodd" style="fill:#E8F6FF" opacity="1" d="M529.771 34.2396C529.941 34.2996 530.091 34.3196 530.231 34.2796C530.231 34.2796 530.071 34.2696 529.771 34.2396Z"></path><path  id="Stroke 120" style="fill:#AAD5FF; opacity:1;" d="M626.298,80.1749M626.298,80.1749c34.18867,11.0346 50.345,22.07663 48.469,33.1261c-1.722,9.99067 -17.126,15.046 -46.212,15.166c-25.554,0.10533 -55.788,-2.84933 -90.702,-8.864c-34.914,-6.014 -64.39967,-13.34727 -88.457,-21.9998c-27.37733,-9.8458 -40.214,-19.7562 -38.51,-29.7312c1.94933,-11.31727 21.68267,-16.29847 59.2,-14.9436c0.11533,0.0042 0.23033,0.0112 0.345,0.021c0.11533,0.0098 0.23,0.02243 0.344,0.0379c0.11467,0.01547 0.22867,0.03373 0.342,0.0548c0.114,0.02107 0.227,0.0449 0.339,0.0715c0.11267,0.0266 0.22433,0.05593 0.335,0.088c0.11133,0.03207 0.22133,0.06687 0.33,0.1044c0.10933,0.03747 0.21767,0.0776 0.325,0.1204c0.10733,0.0428 0.21367,0.0882 0.319,0.1362c0.10467,0.048 0.20833,0.09857 0.311,0.1517c0.10267,0.05307 0.20367,0.10867 0.303,0.1668c0.1,0.05807 0.19833,0.11853 0.295,0.1814c0.09733,0.06293 0.19267,0.12817 0.286,0.1957c0.094,0.0676 0.186,0.13747 0.276,0.2096c0.09,0.07207 0.17833,0.1463 0.265,0.2227c0.08667,0.07647 0.17133,0.155 0.254,0.2356c0.08267,0.0806 0.16333,0.16317 0.242,0.2477c0.07867,0.08453 0.15533,0.17097 0.23,0.2593c0.074,0.08827 0.146,0.17833 0.216,0.2702c0.07,0.09187 0.13767,0.18537 0.203,0.2805c0.06533,0.0952 0.12833,0.19193 0.189,0.2902c0.06067,0.09827 0.119,0.19797 0.175,0.2991c0.056,0.10113 0.10933,0.20357 0.16,0.3073c0.05067,0.10373 0.09867,0.20863 0.144,0.3147c0.04533,0.10613 0.08833,0.2133 0.129,0.3215c0.04,0.1082 0.07767,0.21733 0.113,0.3274c0.03467,0.11007 0.067,0.22093 0.097,0.3326c0.02933,0.1116 0.056,0.2239 0.08,0.3369c0.024,0.11293 0.045,0.2264 0.063,0.3404c0.01867,0.114 0.03433,0.22837 0.047,0.3431c0.01333,0.1148 0.02333,0.22983 0.03,0.3451c0.00733,0.11527 0.01167,0.23063 0.013,0.3461c0.002,0.11547 0.00067,0.2309 -0.004,0.3463c-0.004,0.1154 -0.011,0.2306 -0.021,0.3456c-0.00933,0.11507 -0.022,0.22983 -0.038,0.3443c-0.01533,0.1144 -0.03333,0.2284 -0.054,0.342c-0.02133,0.11353 -0.04533,0.22647 -0.072,0.3388c-0.02667,0.1124 -0.056,0.22407 -0.088,0.335c-0.032,0.11093 -0.06667,0.221 -0.104,0.3302c-0.038,0.1092 -0.07833,0.21743 -0.121,0.3247c-0.04267,0.10727 -0.088,0.2134 -0.136,0.3184c-0.048,0.10507 -0.09867,0.20887 -0.152,0.3114c-0.05267,0.10253 -0.108,0.2037 -0.166,0.3035c-0.058,0.0998 -0.11867,0.19813 -0.182,0.295c-0.06267,0.0968 -0.128,0.19203 -0.196,0.2857c-0.06733,0.09367 -0.137,0.1856 -0.209,0.2758c-0.072,0.0902 -0.14633,0.17857 -0.223,0.2651c-0.07667,0.0866 -0.155,0.17123 -0.235,0.2539c-0.08067,0.08273 -0.16333,0.16343 -0.248,0.2421c-0.08467,0.0786 -0.171,0.15513 -0.259,0.2296c-0.08867,0.0744 -0.179,0.1466 -0.271,0.2166c-0.09133,0.06993 -0.18467,0.1376 -0.28,0.203c-0.09533,0.0654 -0.192,0.12843 -0.29,0.1891c-0.09867,0.06067 -0.19833,0.11887 -0.299,0.1746c-0.10133,0.05573 -0.204,0.10897 -0.308,0.1597c-0.10333,0.05073 -0.208,0.0989 -0.314,0.1445c-0.10667,0.04553 -0.214,0.08847 -0.322,0.1288c-0.108,0.04033 -0.217,0.07797 -0.327,0.1129c-0.11,0.03493 -0.221,0.06717 -0.333,0.0967c-0.11133,0.02953 -0.22367,0.0563 -0.337,0.0803c-0.11267,0.024 -0.226,0.0452 -0.34,0.0636c-0.114,0.0184 -0.22833,0.03403 -0.343,0.0469c-0.11533,0.0128 -0.23033,0.02277 -0.345,0.0299c-0.11533,0.0072 -0.23067,0.01153 -0.346,0.013c-0.116,0.00153 -0.23167,0.0002 -0.347,-0.004c-15.05,-0.54353 -26.895,-0.09103 -35.535,1.3575c-3.89467,0.65307 -6.79267,1.4533 -8.694,2.4007c-0.55467,0.27647 -0.91233,0.4987 -1.073,0.6667c0.25533,-0.2668 0.42933,-0.66963 0.522,-1.2085c0.08267,-0.4826 0.058,-0.90253 -0.074,-1.2598c0.02267,0.06 0.13733,0.2156 0.344,0.4668c0.93067,1.12887 2.568,2.43733 4.912,3.9254c5.43467,3.4498 13.499,7.09777 24.193,10.9439c23.28333,8.37347 51.976,15.4975 86.078,21.3721c34.102,5.87467 63.518,8.761 88.248,8.659c11.35867,-0.04667 20.173,-0.78667 26.443,-2.22c2.70333,-0.61867 4.68067,-1.304 5.932,-2.056c0.27733,-0.16667 0.436,-0.274 0.476,-0.322c-0.244,0.29333 -0.40867,0.68733 -0.494,1.182c-0.08867,0.522 -0.05867,0.953 0.09,1.293c-0.08067,-0.18467 -0.31433,-0.48267 -0.701,-0.894c-1.37,-1.45733 -3.67567,-3.107 -6.917,-4.949c-7.228,-4.10733 -17.682,-8.36877 -31.362,-12.7843c-0.11,-0.03547 -0.219,-0.0736 -0.327,-0.1144c-0.108,-0.0408 -0.215,-0.08423 -0.321,-0.1303c-0.106,-0.04613 -0.21067,-0.0948 -0.314,-0.146c-0.104,-0.0512 -0.20633,-0.1049 -0.307,-0.1611c-0.10067,-0.05627 -0.2,-0.11493 -0.298,-0.176c-0.098,-0.06113 -0.19433,-0.1246 -0.289,-0.1904c-0.09533,-0.06587 -0.18867,-0.134 -0.28,-0.2044c-0.09133,-0.07047 -0.181,-0.1431 -0.269,-0.2179c-0.088,-0.0748 -0.174,-0.15173 -0.258,-0.2308c-0.08467,-0.07907 -0.167,-0.16013 -0.247,-0.2432c-0.08,-0.08313 -0.158,-0.16813 -0.234,-0.255c-0.076,-0.08693 -0.15,-0.17567 -0.222,-0.2662c-0.07133,-0.0906 -0.14067,-0.18287 -0.208,-0.2768c-0.06733,-0.09393 -0.132,-0.18947 -0.194,-0.2866c-0.06267,-0.09713 -0.12267,-0.19573 -0.18,-0.2958c-0.058,-0.10013 -0.11333,-0.20157 -0.166,-0.3043c-0.05267,-0.1028 -0.10267,-0.20683 -0.15,-0.3121c-0.04733,-0.10527 -0.09233,-0.2116 -0.135,-0.319c-0.042,-0.10747 -0.08167,-0.2159 -0.119,-0.3253c-0.03667,-0.1094 -0.07067,-0.21963 -0.102,-0.3307c-0.032,-0.11107 -0.061,-0.22287 -0.087,-0.3354c-0.026,-0.11247 -0.04933,-0.22553 -0.07,-0.3392c-0.02067,-0.1136 -0.03833,-0.22767 -0.053,-0.3422c-0.01467,-0.11453 -0.02667,-0.22933 -0.036,-0.3444c-0.00933,-0.11513 -0.016,-0.2304 -0.02,-0.3458c-0.00333,-0.1154 -0.004,-0.23083 -0.002,-0.3463c0.002,-0.11547 0.007,-0.2308 0.015,-0.346c0.00733,-0.11527 0.01767,-0.23023 0.031,-0.3449c0.01333,-0.11473 0.02967,-0.22903 0.049,-0.3429c0.01867,-0.11393 0.04033,-0.2273 0.065,-0.3401c0.02467,-0.11287 0.052,-0.22507 0.082,-0.3366c0.03,-0.11147 0.06267,-0.22217 0.098,-0.3321c0.03533,-0.10987 0.07333,-0.2188 0.114,-0.3268c0.04133,-0.10807 0.085,-0.21503 0.131,-0.3209c0.046,-0.10587 0.09467,-0.21057 0.146,-0.3141c0.05067,-0.10347 0.10433,-0.20563 0.161,-0.3065c0.056,-0.10087 0.11467,-0.2003 0.176,-0.2983c0.06067,-0.098 0.124,-0.19443 0.19,-0.2893c0.066,-0.09487 0.13433,-0.18807 0.205,-0.2796c0.07,-0.09147 0.14233,-0.1812 0.217,-0.2692c0.07533,-0.08793 0.15233,-0.174 0.231,-0.2582c0.07933,-0.0842 0.16033,-0.1664 0.243,-0.2466c0.08333,-0.0802 0.16833,-0.1583 0.255,-0.2343c0.08733,-0.076 0.17633,-0.14983 0.267,-0.2215c0.09,-0.07167 0.182,-0.14107 0.276,-0.2082c0.094,-0.06713 0.18967,-0.13193 0.287,-0.1944c0.09733,-0.06247 0.196,-0.1225 0.296,-0.1801c0.1,-0.0576 0.20133,-0.1127 0.304,-0.1653c0.10267,-0.05267 0.20667,-0.10277 0.312,-0.1503c0.10533,-0.04753 0.21167,-0.09243 0.319,-0.1347c0.10733,-0.04227 0.216,-0.0819 0.326,-0.1189c0.10933,-0.037 0.21933,-0.07127 0.33,-0.1028c0.11133,-0.0316 0.22333,-0.06043 0.336,-0.0865c0.112,-0.02607 0.225,-0.04937 0.339,-0.0699c0.11333,-0.02053 0.22733,-0.03823 0.342,-0.0531c0.11467,-0.01493 0.22933,-0.02703 0.344,-0.0363c0.11533,-0.00933 0.23067,-0.0158 0.346,-0.0194c0.11533,-0.00367 0.23067,-0.00447 0.346,-0.0024c0.116,0.00207 0.23167,0.00693 0.347,0.0146c0.11467,0.00773 0.22933,0.01827 0.344,0.0316c0.11467,0.01333 0.229,0.0295 0.343,0.0485c0.114,0.01893 0.22767,0.04067 0.341,0.0652c0.11267,0.02453 0.22467,0.0518 0.336,0.0818c0.11133,0.03007 0.222,0.06283 0.332,0.0983z"></path></g><g opacity="1"  transform="translate(71.59638977050781 94.26579284667969)  rotate(0)"><g opacity="1"  transform="translate(0 298.7401123046875)  rotate(0)"><mask id="mask-4" fill="white"><path d="M0.345718 2.01951L501.586 2.01951L501.586 0.119507L0.345718 0.119507L0.345718 2.01951Z"  ></path></mask><g mask="url(#mask-4)"></g><g mask="url(#mask-4)"><path id="Fill 123" fill-rule="evenodd" style="fill:#121274" opacity="0.23" d="M250.966 0.119507C112.576 0.119507 0.345718 0.539507 0.345718 1.06951C0.345718 1.58951 112.576 2.01951 250.966 2.01951C389.356 2.01951 501.586 1.58951 501.586 1.06951C501.586 0.539507 389.356 0.119507 250.966 0.119507Z"></path></g></g><path id="Fill 126" fill-rule="evenodd" style="fill:#2438B7" opacity="1" d="M36.5744,169.387v-27.89l83.2696,-136.95031h37.4v129.38031h25.68v35.46h-25.68v46.95h-38.89v-46.95zM123.839,133.929v-74.54l-44.8804,74.54z"></path><path id="Fill 128" fill-rule="evenodd" style="fill:#2438B7" opacity="1" d="M203.614,169.532c-6.32,-16.68 -9.47,-36.32 -9.47,-58.93c0,-22.8201 3.12,-42.5201 9.35,-59.0901c6.23,-16.57 15.21,-29.29 26.92,-38.17c11.73,-8.90001 25.56,-13.34001 41.52,-13.34001c15.95,0 29.74,4.44 41.39,13.34001c11.62,8.88 20.57,21.6 26.79,38.17c6.23,16.57 9.36,36.27 9.36,59.0901c0,22.61 -3.16,42.25 -9.48,58.93c-6.32,16.65 -15.3,29.38 -26.92,38.17c-11.65,8.79 -25.35,13.18 -41.14,13.18c-15.8,0 -29.55,-4.39 -41.26,-13.18c-11.72,-8.79 -20.75,-21.52 -27.06,-38.17zM311.078,111.207c0,-21.21 -3.37,-37.88 -10.1,-50c-6.74,-12.13 -16.42,-18.18 -29.05,-18.18c-12.63,0 -22.31,6.05 -29.04,18.18c-6.73,12.12 -10.1,28.79 -10.1,50c0,21.01 3.41,37.46 10.22,49.38c6.81,11.92 16.46,17.88 28.92,17.88c12.47,0 22.1,-5.96 28.92,-17.88c6.82,-11.92 10.23,-28.37 10.23,-49.38z"></path><path id="Fill 130" fill-rule="evenodd" style="fill:#2438B7" opacity="1" d="M481.356,216.337h-38.89v-46.95h-81.78v-27.89l83.27,-136.95031h37.4v129.38031h25.68v35.46h-25.68zM447.949,133.929v-74.54l-44.88,74.54z"></path><path id="Fill 132" fill-rule="evenodd" style="fill:#2438B7" opacity="1" d="M272.408 220.89L272.408 0L239.268 0L239.268 220.89L272.408 220.89Z"></path><path id="Fill 134" fill-rule="evenodd" style="fill:#2438B7" opacity="1" d="M118.354,216.337v-46.95h-81.7796v-27.89l83.2696,-136.95031h37.4v129.38031h25.68v35.46h-25.68v46.95zM123.839,133.929v-74.54l-44.8804,74.54z"></path><path id="Fill 135" fill-rule="evenodd" style="fill:#2438B7" opacity="1" d="M442.466,169.387h-81.78v-27.89l83.27,-136.95031h37.4v129.38031h25.68v35.46h-25.68v46.95h-38.89zM447.949,133.929v-74.54l-44.88,74.54z"></path></g><path id="Fill 137" fill-rule="evenodd" fill="url(#linear_2)" opacity="1" d="M552.956 310.602L552.956 263.642L520.836 263.642L520.836 310.602L552.956 310.602Z"></path><path id="Fill 139" fill-rule="evenodd" fill="url(#linear_3)" opacity="1" d="M228.842 310.602L228.842 263.642L196.722 263.642L196.722 310.602L228.842 310.602Z"></path><g opacity="1"  transform="translate(265.46971130371094 93.91831970214844)  rotate(0)"><mask id="mask-5" fill="white"><path d="M36.5515 13.6883C24.8315 22.5683 15.8515 35.2883 9.62152 51.8583C3.39151 68.4283 0.271515 88.1283 0.271515 110.948C0.271515 133.568 3.42151 153.198 9.74152 169.878C16.0515 186.528 25.0815 199.258 36.8015 208.048C39.5515 210.118 42.4115 211.938 45.3915 213.528L45.3915 221.238L78.0615 221.238C93.8415 221.238 107.552 216.838 119.192 208.048C130.822 199.258 139.802 186.528 146.122 169.878C152.442 153.198 155.592 133.568 155.592 110.948C155.592 88.1283 152.472 68.4283 146.242 51.8583C140.012 35.2883 131.072 22.5683 119.432 13.6883C107.802 4.78827 94.0115 0.348267 78.0615 0.348267L45.3915 0.348267L45.3915 8.03827C42.3215 9.64827 39.3815 11.5483 36.5515 13.6883Z"  ></path></mask><g mask="url(#mask-5)"></g><g mask="url(#mask-5)"><path id="Fill 141" fill-rule="evenodd" fill="url(#linear_4)" opacity="1" d="M0.271515 110.948C0.271515 133.568 3.42151 153.198 9.74152 169.878C16.0515 186.528 25.0815 199.258 36.8015 208.048C39.5515 210.118 42.4115 211.938 45.3915 213.528L45.3915 221.238L78.0615 221.238C93.8415 221.238 107.552 216.838 119.192 208.048C130.822 199.258 139.802 186.528 146.122 169.878C152.442 153.198 155.592 133.568 155.592 110.948C155.592 88.1283 152.472 68.4283 146.242 51.8583C140.012 35.2883 131.072 22.5683 119.432 13.6883C107.802 4.78827 94.0115 0.348267 78.0615 0.348267L45.3915 0.348267L45.3915 8.03827C42.3215 9.64827 39.3815 11.5483 36.5515 13.6883C24.8315 22.5683 15.8515 35.2883 9.62152 51.8583C3.39151 68.4283 0.271515 88.1283 0.271515 110.948Z"></path></g></g><g opacity="1"  transform="translate(76.05450439453125 94.26646423339844)  rotate(0)"><path id="Fill 144" fill-rule="evenodd" style="fill:#0D0D0F" opacity="1" d="M264.405 61.2051C257.665 49.0951 247.985 43.0251 235.355 43.0251C222.725 43.0251 213.045 49.0951 206.315 61.2051C199.585 73.3251 196.215 89.9951 196.215 111.195C196.215 132.215 199.625 148.665 206.435 160.585C213.245 172.505 222.885 178.465 235.355 178.465C247.825 178.465 257.465 172.505 264.275 160.585C271.085 148.665 274.505 132.215 274.505 111.195C274.505 89.9951 271.135 73.3251 264.405 61.2051Z"></path><path id="Fill 146" fill-rule="evenodd" style="fill:#FFFFFF" opacity="1" d="M229.394 51.4717C229.394 55.0717 228.204 57.9917 226.744 57.9917C228.204 57.9917 229.394 60.9117 229.394 64.5217C229.394 60.9117 230.584 57.9917 232.044 57.9917C230.584 57.9917 229.394 55.0717 229.394 51.4717Z"></path><path id="Fill 148" fill-rule="evenodd" style="fill:#FFFFFF" opacity="1" d="M248.18 60.4636C248.18 66.3836 246.23 71.1936 243.82 71.1936C246.23 71.1936 248.18 75.9936 248.18 81.9136C248.18 75.9936 250.13 71.1936 252.54 71.1936C250.13 71.1936 248.18 66.3836 248.18 60.4636Z"></path><path id="Fill 150" fill-rule="evenodd" style="fill:#FFFFFF" opacity="1" d="M222.373 90.301C222.373 94.711 220.923 98.281 219.133 98.281C220.923 98.281 222.373 101.861 222.373 106.271C222.373 101.861 223.833 98.281 225.623 98.281C223.833 98.281 222.373 94.711 222.373 90.301Z"></path><path id="Fill 152" fill-rule="evenodd" style="fill:#FFFFFF" opacity="1" d="M262.829 94.7797C262.829 97.4597 261.949 99.6297 260.859 99.6297C261.949 99.6297 262.829 101.8 262.829 104.48C262.829 101.8 263.709 99.6297 264.799 99.6297C263.709 99.6297 262.829 97.4597 262.829 94.7797Z"></path><path id="Fill 154" fill-rule="evenodd" style="fill:#FFFFFF" opacity="1" d="M240.637 137.482C240.637 142.732 238.897 146.992 236.767 146.992C238.897 146.992 240.637 151.252 240.637 156.502C240.637 151.252 242.367 146.992 244.497 146.992C242.367 146.992 240.637 142.732 240.637 137.482Z"></path><path id="Fill 156" fill-rule="evenodd" style="fill:#FFFFFF" opacity="1" d="M209.476 116.63C209.476 120.65 208.156 123.92 206.516 123.92C208.156 123.92 209.476 127.18 209.476 131.2C209.476 127.18 210.806 123.92 212.436 123.92C210.806 123.92 209.476 120.65 209.476 116.63Z"></path><path id="Fill 158" fill-rule="evenodd" style="fill:#285FD7" opacity="1" d="M146.35,133.926v35.46h-25.68v46.95h-38.89v-46.95h-81.78v-27.89l83.27,-136.94998h37.4v129.37998zM87.2643,133.928v-74.5397l-44.88,74.5397z"></path><path id="Fill 160" fill-rule="evenodd" style="fill:#285FD7" opacity="1" d="M193.849,13.34c11.72,-8.9 25.56,-13.34 41.51,-13.34c15.95,0 29.74,4.44 41.39,13.34c11.62,8.88 20.57,21.6 26.8,38.17c6.23,16.57 9.35,36.27 9.35,59.09c0,22.62 -3.17,42.25 -9.48,58.93c-6.32,16.65 -15.3,29.38 -26.93,38.17c-11.64,8.79 -25.34,13.19 -41.13,13.19c-15.8,0 -29.55,-4.4 -41.26,-13.19c-11.72,-8.79 -20.73,-21.52 -27.06,-38.17c-3.74,-9.87 -6.38,-20.81 -7.9,-32.76c-1.04,-8.24 -1.57,-16.96 -1.57,-26.17c0,-7.18 0.31,-14.05 0.93,-20.61c1.34,-14.29 4.15,-27.13 8.42,-38.48c6.23,-16.57 15.21,-29.29 26.93,-38.17zM274.505,111.195c0,-21.1999 -3.37,-37.8699 -10.1,-49.9899c-6.74,-12.11 -16.42,-18.18 -29.05,-18.18c-12.63,0 -22.31,6.07 -29.04,18.18c-6.73,12.12 -10.1,28.79 -10.1,49.9899c0,21.02 3.41,37.47 10.22,49.39c6.81,11.92 16.45,17.88 28.92,17.88c12.47,0 22.11,-5.96 28.92,-17.88c6.81,-11.92 10.23,-28.37 10.23,-49.39z"></path><path id="Fill 162" fill-rule="evenodd" style="fill:#285FD7" opacity="1" d="M405.891,169.386h-81.78v-27.89l83.27,-136.94998h37.4v129.37998h25.68v35.46h-25.68v46.95h-38.89zM411.375,133.928v-74.5397l-44.88,74.5397z"></path></g><g opacity="1"  transform="translate(351.54624938964844 233.3850555419922)  rotate(0)"><mask id="mask-6" fill="white"><path d="M2.88552 71.9065L16.3455 61.5565L12.8255 0.0165405L0.34552 36.6465L2.88552 71.9065Z"  ></path></mask><g mask="url(#mask-6)"></g><g mask="url(#mask-6)"></g></g></g><g opacity="1"  transform="translate(197.18634033203125 117.98527526855469)  rotate(0)"><path id="Fill 168" fill-rule="evenodd" style="fill:#EF3C86" opacity="1" d="M13.0947 269.945L18.4247 258.485L8.51473 252.195L3.69473 264.995L13.0947 269.945Z"></path><path id="Fill 170" fill-rule="evenodd" style="fill:#0B096F" opacity="1" d="M0.0565186 275.526L42.7765 275.626C42.7765 275.626 35.2065 267.236 15.4765 264.826L4.25652 263.366L0.0565186 275.526Z"></path><path id="Fill 172" fill-rule="evenodd" style="fill:#131318" opacity="1" d="M29.3425 192.332L1.56247 260.692L20.2725 262.962L50.9225 202.042L63.9225 132.692L33.8225 125.702L29.3425 192.332Z"></path><path id="Fill 174" fill-rule="evenodd" style="fill:#FF77CA" opacity="1" d="M57.3029 73.2589L105.263 53.4689C105.263 53.4689 106.603 51.7289 105.743 48.7189C104.893 45.6989 102.343 45.3689 102.343 45.3689L55.7529 54.7489L57.3029 73.2589Z"></path><path id="Fill 176" fill-rule="evenodd" style="fill:#FF77CA" opacity="1" d="M47.8049 85.7297L88.3949 92.4097L92.6849 58.2497L86.0749 55.7097L79.7549 76.1797L50.7749 67.6697L47.8049 85.7297Z"></path><path id="Fill 178" fill-rule="evenodd" style="fill:#FE7A00" opacity="1" d="M25.5833 61.6942L63.0833 71.0542L56.8232 53.4642L25.5833 61.6942Z"></path><path  id="Stroke 180" style="fill:#0B096F; opacity:1;" d="M10.8229,15.3771l3.2551,8.3546l-5.04075,3.7806l-7.13239,-4.9028l2.5695,-3.738l5.79004,3.98l-1.28479,1.869l-1.3608,-1.8144l2.36,-1.77l1.36079,1.8144l-2.11325,0.8234l-2.63,-6.75z"></path><path id="Fill 182" fill-rule="evenodd" style="fill:#0B096F" opacity="1" d="M48.2386 31.8559C60.2286 24.9559 47.2986 15.1559 47.2986 15.1559L48.2386 31.8559Z"></path><path id="Fill 184" fill-rule="evenodd" style="fill:#FF77CA" opacity="1" d="M48.1921 24.1685L34.2321 17.1385L16.5721 23.4885L19.0421 40.4485C17.3321 37.9185 7.77207 36.7985 7.44207 43.6485C7.01207 52.4685 23.5021 52.4585 23.5021 52.4585L26.2021 64.4185L40.8721 62.5085L38.0321 51.9785C38.0321 51.9785 51.9221 49.2585 54.3521 46.9885C54.3521 46.9885 52.8421 33.0585 48.1921 24.1685Z"></path><path id="Fill 186" fill-rule="evenodd" style="fill:#0B096F" opacity="1" d="M19.0388 40.4511C27.8188 36.3011 22.2088 29.4411 22.2088 29.4411C66.2188 32.0811 58.3288 3.76115 55.0988 3.34115C51.8688 2.93115 49.1288 12.8811 49.1288 12.8811C49.1288 12.8811 43.2388 -2.37885 33.1288 0.391147C26.0288 2.32115 26.4388 13.8411 26.4388 13.8411C26.4388 13.8411 15.8388 10.8611 8.55883 24.3011C1.28883 37.7411 11.0188 38.8811 11.0188 38.8811C16.5188 37.5611 19.0388 40.4511 19.0388 40.4511Z"></path><path id="Fill 188" fill-rule="evenodd" style="fill:#FFFFFF" opacity="1" d="M41.776 46.5903C43.896 46.1903 46.386 48.1803 47.646 46.2303C48.966 44.1803 46.436 41.3903 42.666 41.8503C40.126 42.1603 38.426 44.1503 38.996 45.4403C39.436 46.4203 40.626 46.8003 41.776 46.5903Z"></path><path id="Fill 190" fill-rule="evenodd" style="fill:#EF3C86" opacity="1" d="M28.5521 52.5428L39.1221 56.1128L38.0321 51.9828L28.5521 52.5428Z"></path><path id="Fill 192" fill-rule="evenodd" style="fill:#285FD7" opacity="1" d="M46.137 40.7849L49.827 39.7049L44.647 32.9649L46.137 40.7849Z"></path><path id="Fill 194" fill-rule="evenodd" style="fill:#EF3C86" opacity="1" d="M57.1592 54.4074L62.6492 71.0574L67.0192 69.2474L57.1592 54.4074Z"></path><path id="Fill 196" fill-rule="evenodd" style="fill:#EF3C86" opacity="1" d="M64.4057 71.6714L63.7057 88.3414L67.4757 88.9614L64.4057 71.6714Z"></path><path id="Fill 198" fill-rule="evenodd" style="fill:#0B096F" opacity="1" d="M38.9603 33.0081C37.9903 33.4781 37.5903 34.6481 38.0503 35.6181C38.5203 36.5881 39.6803 36.9981 40.6503 36.5281C41.6103 36.0681 42.0203 34.8981 41.5603 33.9281C41.0903 32.9481 39.9303 32.5481 38.9603 33.0081Z"></path><path id="Fill 200" fill-rule="evenodd" style="fill:#0B096F" opacity="1" d="M48.2844 30.7072C47.3144 31.1772 46.9144 32.3472 47.3744 33.3172C47.8444 34.2872 49.0044 34.6972 49.9744 34.2272C50.9344 33.7672 51.3444 32.5972 50.8744 31.6272C50.4144 30.6472 49.2544 30.2472 48.2844 30.7072Z"></path><path id="Fill 202" fill-rule="evenodd" style="fill:#FFC100" opacity="1" d="M38.9861 128.98C58.7361 127.88 76.4161 131.89 76.4161 131.89L69.5061 114.14L56.8261 94.1297L63.4061 95.4997L64.5361 68.6297C64.5361 68.6297 30.8961 56.6897 25.5861 61.6897C2.77611 83.1697 33.5461 128.83 33.5461 128.83C33.5461 128.83 37.6261 129.05 38.9861 128.98Z"></path><path id="Fill 204" fill-rule="evenodd" style="fill:#EF3C86" opacity="1" d="M163.092 142.154L157.062 131.584L148.332 140.674L155.812 148.824L163.092 142.154Z"></path><path id="Fill 206" fill-rule="evenodd" style="fill:#2D2D32" opacity="1" d="M122.866 87.7339C118.106 82.5439 110.006 82.3739 105.036 87.3639L69.5058 114.134C69.5058 114.134 64.4758 128.054 35.9858 129.204C35.9858 129.204 46.7958 154.234 71.8458 145.364C83.1258 141.364 115.066 113.894 115.066 113.894L150.996 148.904L158.396 129.144L122.866 87.7339Z"></path><path  id="Stroke 208" style="fill:#0B096F; opacity:1;" d="M39.0554,30.5294l-3.3581,3.0931l-2.3902,-2.595l3.3581,-3.0931z"></path><path  id="Stroke 210" style="fill:#0B096F; opacity:1;" d="M47.1468,25.4398l5.4995,0.8877l-0.5622,3.483l-5.4995,-0.8878z"></path><path id="Fill 212" fill-rule="evenodd" style="fill:#0B096F" opacity="1" d="M163.095 156.509L170.845 114.919C170.845 114.919 165.195 122.779 160.135 135.359L155.815 148.829L163.095 156.509Z"></path><path id="Fill 214" fill-rule="evenodd" style="fill:#FE7A00" opacity="1" d="M41.0366 90.1352L60.5366 99.9852L56.8266 94.1252L41.0366 90.1352Z"></path><path id="Fill 216" fill-rule="evenodd" style="fill:#FF77CA" opacity="1" d="M99.4845 57.6088C100.825 56.8488 99.9145 54.1588 99.3345 53.6988C98.7545 53.2388 95.2045 52.1088 96.0445 49.2688C96.7945 46.7288 94.8745 44.2488 93.4545 45.8988C93.1945 46.2088 92.8745 47.1888 92.8745 47.1888C92.8745 47.1888 89.0845 50.1488 86.3945 54.8088C83.6945 59.4788 91.8445 61.2788 91.8445 61.2788C91.8445 61.2788 94.3645 61.7388 95.0845 61.1088C95.8045 60.4888 96.6945 60.7988 97.2145 60.4588C97.7445 60.1288 98.1445 58.3688 99.4845 57.6088Z"></path><path  id="Stroke 218" style="fill:#EF3C86; opacity:1;" d="M83.8651,61.9963l2,-6.73l0.7247,0.2154l-0.756,-0.0019l0.756,0.0019l-0.756,-0.0019c0.00053,-0.229 0.04317,-0.52127 0.1279,-0.8768c0.1582,-0.6638 0.4307,-1.34603 0.8175,-2.0467c1.1964,-2.16733 3.26223,-4.14413 6.1975,-5.9304l0.7861,1.2916c-2.7064,1.647 -4.59303,3.43683 -5.6599,5.3695c-0.32053,0.5806 -0.544,1.1361 -0.6704,1.6665c-0.05753,0.24153 -0.08647,0.4182 -0.0868,0.53l-0.0002,0.109l0.0002,-0.109l-0.0002,0.109l-2.0311,6.8345z"></path><path  id="Stroke 220" style="fill:#EF3C86; opacity:1;" d="M96.5617,46.2495M96.5617,46.2495c0.1584,0.24427 0.2701,0.5906 0.3351,1.039c0.113,0.7796 0.0336,1.6876 -0.2382,2.724c-0.11807,0.45033 0.0087,0.86773 0.3803,1.2522c0.27767,0.28727 0.81757,0.65423 1.6197,1.1009c0.6102,0.33987 1.01243,0.60453 1.2067,0.794c0.44113,0.42507 0.7447,0.95353 0.9107,1.5854c0.08267,0.31493 0.12167,0.59813 0.117,0.8496l-1.5115,-0.0277c0.002,-0.11193 -0.02063,-0.2579 -0.0679,-0.4379c-0.09407,-0.3582 -0.26213,-0.6539 -0.5042,-0.8871c-0.09807,-0.09573 -0.39357,-0.28083 -0.8865,-0.5553c-0.9326,-0.5194 -1.58963,-0.97643 -1.9711,-1.3711c-0.76573,-0.7922 -1.01763,-1.6877 -0.7557,-2.6865c0.21987,-0.8386 0.28797,-1.54647 0.2043,-2.1236c-0.02267,-0.15647 -0.05473,-0.28887 -0.0962,-0.3972c-0.00953,-0.02487 -0.0181,-0.04473 -0.0257,-0.0596c0.0018,0.00347 0.00663,0.01127 0.0145,0.0234z"></path><path  id="Stroke 222" style="fill:#EF3C86; opacity:1;" d="M91.5171,61.4895l0.4148,-3.6636l1.5024,0.1701l-0.4148,3.6636z"></path></g></g><defs><linearGradient id="linear_0" x1="2.2740771067755987%" y1="11.436100892204884%" x2="97.72581140864311%" y2="88.56372944932816%" gradientUnits="objectBoundingBox"><stop offset="0" stop-color="#D4EEFF" stop-opacity="1" /><stop offset="1" stop-color="#D4EEFF" stop-opacity="1" /></linearGradient><linearGradient id="linear_1" x1="2.2345678891493623%" y1="11.27440822852165%" x2="97.7654494863223%" y2="88.7249170168639%" gradientUnits="objectBoundingBox"><stop offset="0" stop-color="#D4EEFF" stop-opacity="1" /><stop offset="1" stop-color="#D4EEFF" stop-opacity="1" /></linearGradient><linearGradient id="linear_2" x1="52.03988014427764%" y1="-25.777137977204056%" x2="49.49622623550315%" y2="68.74055178865697%" gradientUnits="objectBoundingBox"><stop offset="0" stop-color="#151686" stop-opacity="1" /><stop offset="1" stop-color="#2438B6" stop-opacity="1" /></linearGradient><linearGradient id="linear_3" x1="52.040288559083145%" y1="-25.777137977204056%" x2="49.496602792911226%" y2="68.74055178865697%" gradientUnits="objectBoundingBox"><stop offset="0" stop-color="#151686" stop-opacity="1" /><stop offset="1" stop-color="#2438B6" stop-opacity="1" /></linearGradient><linearGradient id="linear_4" x1="51.63277387611351%" y1="94.26860245369888%" x2="49.39610607002278%" y2="33.69950019069724%" gradientUnits="objectBoundingBox"><stop offset="0" stop-color="#151686" stop-opacity="1" /><stop offset="1" stop-color="#2438B6" stop-opacity="1" /></linearGradient></defs></svg>
