<svg xmlns="http://www.w3.org/2000/svg" xmlns:xlink="http://www.w3.org/1999/xlink" width="404" height="302" viewBox="0 0 404 302" fill="none"><g opacity="1"  transform="translate(52 0)  rotate(0)"><path id="Subtract" fill-rule="evenodd" style="fill:#F0F3FD" opacity="1" d="M0,203.57c0,-82.84 67.16,-149.9999 150,-149.9999c82.84,0 150,67.1599 150,149.9999c0,36.718 -13.194,70.356 -35.1,96.43h-229.7995c-21.906,-26.074 -35.1005,-59.712 -35.1005,-96.43z"></path><path id="Union" fill-rule="evenodd" style="fill:#FFFFFF" opacity="0.7" d="M109,114.93c0,0.071 -0.001,0.142 -0.003,0.213c4.284,0.11 7.723,3.616 7.723,7.927c0,4.31 -3.437,7.816 -7.72,7.927v0.003h-15.8599v-0.003c-0.0698,0.002 -0.1398,0.003 -0.2101,0.003c-4.38,0 -7.93,-3.55 -7.93,-7.93c0,-4.38 3.55,-7.93 7.93,-7.93c0.0712,0 0.1422,0.001 0.2129,0.003c-0.0019,-0.071 -0.0028,-0.142 -0.0028,-0.213c0,-4.38 3.55,-7.93 7.9299,-7.93c4.38,0 7.93,3.55 7.93,7.93z"></path><g opacity="0.15"  transform="translate(15.74462890625 153.949951171875)  rotate(0)"><g opacity="1"  transform="translate(0 0)  rotate(0)"><path id="Union" fill-rule="evenodd" style="fill:#A4A4A4" opacity="1" d="M36.7099,36.4501l4.82,-32.82005c0.04,-0.25 0.15,-0.49 0.31,-0.68l1.91,-2.27v49.67005c0,0.37 -0.31,0.68 -0.68,0.68c-0.38,0 -0.69,-0.3 -0.69,-0.68v-10.4872c-0.1785,0.0002 -0.3615,-0.0355 -0.54,-0.1128l-4.31,-1.85c-0.57,-0.24 -0.91,-0.84 -0.82,-1.45z"></path><path id="Union" fill-rule="evenodd" style="fill:#C4C4C4" opacity="1" d="M36.7099,35.77l4.82,-32.82c0.04,-0.25 0.15,-0.49 0.31,-0.68l1.91,-2.27v49.67c0,0.37 -0.31,0.68 -0.68,0.68c-0.38,0 -0.69,-0.3 -0.69,-0.68v-10.4872c-0.1785,0.0002 -0.3615,-0.0354 -0.54,-0.1128l-4.31,-1.85c-0.57,-0.24 -0.91,-0.84 -0.82,-1.45z"></path><path id="Union" fill-rule="evenodd" style="fill:#A4A4A4" opacity="1" d="M43.3467,49.4622c0.3291,-0.19 0.7526,-0.0765 0.9425,0.2526c0.19,0.3291 0.0716,0.7439 -0.2575,0.9339l-9.0735,5.2386c0.0894,0.1545 0.15,0.3307 0.1723,0.524l0.5528,4.6576c0.0772,0.6136 -0.2724,1.2081 -0.8457,1.4352l-30.83295,12.2357c-0.23651,0.0904 -0.49936,0.1151 -0.7439,0.0715l-2.92088,-0.5191z"></path><path id="Union" fill-rule="evenodd" style="fill:#C4C4C4" opacity="1" d="M43.0068,49.1222c0.329,-0.19 0.7525,-0.0765 0.9425,0.2526c0.19,0.329 0.0716,0.7439 -0.2575,0.9339l-9.0737,5.2386c0.0894,0.1545 0.15,0.3307 0.1722,0.524l0.5529,4.6576c0.0771,0.6136 -0.2725,1.2081 -0.8458,1.4351l-30.83291,12.2358c-0.2365,0.0903 -0.49935,0.1151 -0.7439,0.0715l-2.92087,-0.5191l32.74438,-18.905l0.0147,-0.0083z"></path><path id="Union" fill-rule="evenodd" style="fill:#A4A4A4" opacity="1" d="M42.6988,51.1178c-0.3291,-0.19 -0.4425,-0.6135 -0.2525,-0.9426c0.19,-0.3291 0.6084,-0.4339 0.9375,-0.2439l9.0734,5.2386c0.0891,-0.1547 0.2114,-0.2953 0.3677,-0.4113l3.7572,-2.8075c0.4928,-0.3737 1.1825,-0.3681 1.6657,0.0148l26.013,20.5843c0.1965,0.1596 0.3493,0.3749 0.4339,0.6084l1.0109,2.7891z"></path><path id="Union" fill-rule="evenodd" style="fill:#C4C4C4" opacity="1" d="M42.6988,50.4277c-0.3291,-0.19 -0.4426,-0.6135 -0.2526,-0.9425c0.19,-0.3291 0.6085,-0.4339 0.9376,-0.2439l9.0735,5.2386c0.0891,-0.1547 0.2114,-0.2953 0.3677,-0.4113l3.7571,-2.8076c0.4929,-0.3736 1.1825,-0.368 1.6658,0.0149l26.0129,20.5842c0.1965,0.1597 0.3494,0.3749 0.4339,0.6085l1.0109,2.7891z"></path></g><path id="Union" fill-rule="evenodd" style="fill:#A4A4A4" opacity="1" d="M41.0054,49.91c0,-1.51 1.23,-2.74 2.74,-2.74c1.51,0 2.74,1.23 2.74,2.74c0,1.1312 -0.6903,2.1052 -1.6713,2.5228l5.4313,90.6172h-13.01l5.4315,-90.6214c-0.9759,-0.4199 -1.6615,-1.3912 -1.6615,-2.5186z"></path><path id="Union" fill-rule="evenodd" style="fill:#C4C4C4" opacity="1" d="M40.3254,49.91c0,-1.51 1.23,-2.74 2.74,-2.74c1.51,0 2.74,1.23 2.74,2.74c0,1.1312 -0.6902,2.1052 -1.6713,2.5228l5.4313,90.6172h-13.01l5.4316,-90.6214c-0.9759,-0.4199 -1.6616,-1.3912 -1.6616,-2.5186z"></path></g><g opacity="0.6"  transform="translate(274 176)  rotate(0)"><path id="Rectangle 445" fill-rule="evenodd" style="fill:#E9EBF2" opacity="1" d="M13.36 63L13.36 63C20.73 63 26.71 57.02 26.71 49.65L26.71 13.36C26.71 5.98 20.74 0 13.36 0L13.36 0C5.98 0 0 5.98 0 13.36L0 49.65C0 57.03 5.98 63 13.36 63Z"></path><path id="Rectangle 446" fill-rule="evenodd" style="fill:#E1E2E5" opacity="1" d="M13.56 124L13.56 124C14 124 14.35 123.65 14.35 123.21L14.35 26.32C14.35 25.88 14 25.52 13.56 25.52L13.56 25.52C13.12 25.52 12.76 25.88 12.76 26.32L12.76 123.21C12.76 123.65 13.12 124 13.56 124Z"></path><path id="Rectangle 447" fill-rule="evenodd" style="fill:#E1E2E5" opacity="1" d="M13.3092 41.0622L13.3092 41.0622C13.6903 41.2822 14.1684 41.1541 14.3884 40.773L20.3134 30.5106C20.5334 30.1296 20.4103 29.6428 20.0292 29.4228L20.0292 29.4228C19.6482 29.2028 19.1564 29.3346 18.9364 29.7156L13.0114 39.9781C12.7914 40.3591 12.9282 40.8422 13.3092 41.0622Z"></path><path id="Rectangle 448" fill-rule="evenodd" style="fill:#E1E2E5" opacity="1" d="M14.181 49.003L5.526 34.0121C5.306 33.631 4.8229 33.4943 4.44184 33.7143L4.44184 33.7143C4.06079 33.9343 3.92902 34.426 4.14902 34.8071L12.804 49.798C13.024 50.179 13.5158 50.3108 13.8968 50.0908L13.8968 50.0908C14.2779 49.8708 14.401 49.384 14.181 49.003Z"></path></g><g opacity="1"  transform="translate(246 124)  rotate(0)"><path id="Rectangle 445" fill-rule="evenodd" style="fill:#E9EBF2" opacity="1" d="M19.1 90.08L19.1 90.08C29.65 90.08 38.2 81.53 38.2 70.98L38.2 19.1C38.2 8.55 29.65 0 19.1 0L19.1 0C8.55 0 0 8.55 0 19.1L0 70.98C0 81.53 8.55 90.08 19.1 90.08Z"></path><path id="Rectangle 446" fill-rule="evenodd" style="fill:#E1E2E5" opacity="1" d="M19.38 177.31L19.38 177.31C20.01 177.31 20.52 176.8 20.52 176.17L20.52 37.63C20.52 37 20.01 36.49 19.38 36.49L19.38 36.49C18.75 36.49 18.24 37 18.24 37.63L18.24 176.17C18.24 176.8 18.75 177.31 19.38 177.31Z"></path><path id="Rectangle 447" fill-rule="evenodd" style="fill:#E1E2E5" opacity="1" d="M19.025 58.7126L19.025 58.7126C19.5706 59.0276 20.2672 58.8409 20.5822 58.2953L29.0522 43.6248C29.3672 43.0792 29.1806 42.3826 28.635 42.0676L28.635 42.0676C28.0894 41.7526 27.3927 41.9392 27.0777 42.4848L18.6077 57.1553C18.2927 57.7009 18.4794 58.3976 19.025 58.7126Z"></path><path id="Rectangle 448" fill-rule="evenodd" style="fill:#E1E2E5" opacity="1" d="M20.2773 70.0714L7.89732 48.6286C7.58232 48.083 6.88565 47.8964 6.34005 48.2114L6.34005 48.2114C5.79446 48.5264 5.60778 49.223 5.92278 49.7686L18.3028 71.2114C18.6178 71.757 19.3145 71.9437 19.8601 71.6287L19.8601 71.6287C20.4056 71.3137 20.5923 70.617 20.2773 70.0714Z"></path></g><g opacity="1"  transform="translate(-46.405029296875 77.06005859375)  rotate(0)"><g opacity="1"  transform="translate(0 0)  rotate(0)"><path id="Union" fill-rule="evenodd" style="fill:#DCDFE5" opacity="1" d="M57.7202,57.32l7.58,-51.60004c0.06,-0.4 0.23,-0.77 0.49,-1.07l3,-3.57v47.90914c0.0002,0.007 0.0002,0.0139 0.0002,0.0209v30.16c0,0.59 -0.48,1.07 -1.07,1.07c-0.59,0 -1.08,-0.48 -1.08,-1.07v-16.4739c-0.2806,0.0005 -0.5685,-0.0552 -0.8502,-0.1761l-6.79,-2.9c-0.9,-0.39 -1.43,-1.33 -1.28,-2.3z"></path><path id="Union" fill-rule="evenodd" style="fill:#E9EBF2" opacity="1" d="M57.7202,56.24l7.58,-51.6c0.06,-0.4 0.23,-0.77 0.49,-1.07l3,-3.57v47.9092c0.0002,0.0069 0.0002,0.0138 0.0002,0.0208v30.16c0,0.59 -0.48,1.07 -1.07,1.07c-0.59,0 -1.08,-0.48 -1.08,-1.07v-16.4738c-0.2806,0.0005 -0.5685,-0.0552 -0.8502,-0.1762l-6.79,-2.9c-0.9,-0.39 -1.43,-1.33 -1.28,-2.3z"></path><path id="Union" fill-rule="evenodd" style="fill:#DCDFE5" opacity="1" d="M68.1494,77.7778c0.5196,-0.3 1.1753,-0.1243 1.4753,0.3953c0.295,0.511 0.1106,1.1717 -0.4003,1.4667l-14.2581,8.2319c0.1407,0.2427 0.2364,0.5199 0.2725,0.8243l0.8835,7.3303c0.1122,0.9744 -0.4368,1.9034 -1.3519,2.2585l-48.47687,19.2352c-0.37643,0.148 -0.78185,0.186 -1.17167,0.111l-4.59169,-0.813l41.48733,-23.9528c0.0041,-0.0025 0.0083,-0.005 0.0125,-0.0074z"></path><path id="Union" fill-rule="evenodd" style="fill:#E9EBF2" opacity="1" d="M67.6196,77.238c0.5196,-0.3 1.1753,-0.1243 1.4753,0.3953c0.295,0.5109 0.1107,1.1716 -0.4003,1.4666l-14.2582,8.232c0.1406,0.2427 0.2363,0.5198 0.2723,0.8241l0.8835,7.3303c0.1123,0.9744 -0.4368,1.9034 -1.3519,2.2585l-48.47686,19.2352c-0.37642,0.148 -0.78184,0.186 -1.17165,0.111l-4.5917,-0.813l51.49381,-29.7301c0.0087,-0.005 0.0174,-0.01 0.0261,-0.0148z"></path><path id="Union" fill-rule="evenodd" style="fill:#DCDFE5" opacity="1" d="M67.1654,80.382c-0.5196,-0.3 -0.6953,-0.9557 -0.3953,-1.4753c0.295,-0.511 0.9594,-0.6816 1.4703,-0.3866l14.258,8.2318c0.1399,-0.2432 0.3321,-0.4647 0.5776,-0.648l5.9065,-4.4303c0.7877,-0.5845 1.8668,-0.5734 2.6318,0.0415l40.8967,32.3649c0.317,0.251 0.552,0.584 0.682,0.959l1.592,4.383z"></path><path id="Union" fill-rule="evenodd" style="fill:#E9EBF2" opacity="1" d="M67.1655,79.3021c-0.5196,-0.3 -0.6953,-0.9557 -0.3953,-1.4753c0.295,-0.511 0.9594,-0.6817 1.4703,-0.3867l14.258,8.2319c0.1399,-0.2432 0.3321,-0.4647 0.5776,-0.648l5.9065,-4.4303c0.7877,-0.5845 1.8668,-0.5735 2.6318,0.0414l40.8966,32.3649c0.317,0.252 0.552,0.584 0.682,0.959l1.592,4.383z"></path></g><path id="Union" fill-rule="evenodd" style="fill:#DCDFE5" opacity="1" d="M64.4751,78.4799c0,-2.38 1.93,-4.31 4.31,-4.31c2.38,0 4.31,1.93 4.31,4.31c0,1.7779 -1.0769,3.3046 -2.6139,3.9634l8.5337,142.4967h-20.46l8.5338,-142.4969c-1.5368,-0.6588 -2.6136,-2.1855 -2.6136,-3.9632z"></path><path id="Union" fill-rule="evenodd" style="fill:#E9EBF2" opacity="1" d="M63.405,78.4799c0,-2.38 1.93,-4.31 4.31,-4.31c2.38,0 4.31,1.93 4.31,4.31c0,1.7778 -1.0768,3.3044 -2.6136,3.9632l8.5337,142.4969h-20.46l8.5338,-142.4968c-1.537,-0.6587 -2.6139,-2.1855 -2.6139,-3.9633z"></path></g><path id="Union" fill-rule="evenodd" style="fill:#FFFFFF" opacity="0.6" d="M207.1,143c0,0.034 0,0.068 -0.001,0.101c2.164,0.053 3.901,1.822 3.901,3.999c0,2.177 -1.736,3.946 -3.9,3.999v0.001h-8v-0.001c-0.033,0.001 -0.067,0.001 -0.1,0.001c-2.21,0 -4,-1.79 -4,-4c0,-2.21 1.79,-4 4,-4c0.034,0 0.068,0 0.101,0.001c0,-0.033 -0.001,-0.067 -0.001,-0.101c0,-2.21 1.79,-4 4,-4c2.21,0 4,1.79 4,4z"></path><path id="Union" fill-rule="evenodd" style="fill:#FFFFFF" opacity="0.5" d="M229,185.32c0,0.017 0,0.034 0,0.051c1.247,0.026 2.26,1.056 2.26,2.319c0,1.253 -1.013,2.282 -2.26,2.309v0.001h-0.029h-0.021h-0.022h-4.558v-0.001c-0.017,0.001 -0.033,0.001 -0.05,0.001c-1.28,0 -2.32,-1.04 -2.32,-2.31c0,-1.28 1.04,-2.32 2.32,-2.32c0.017,0 0.034,0 0.051,0.001c-0.001,-0.017 -0.001,-0.034 -0.001,-0.051c0,-1.28 1.04,-2.32 2.32,-2.32c1.27,0 2.31,1.04 2.31,2.32z"></path><path id="Union" fill-rule="evenodd" style="fill:#FFFFFF" opacity="1" d="M194.3,87.26c3.954,0 7.22,2.9314 7.746,6.74h2.934c3.59,0 6.5,2.91 6.5,6.5c0,3.59 -2.91,6.5 -6.5,6.5h-38.48c-3.59,0 -6.5,-2.91 -6.5,-6.5c0,-3.146 2.235,-5.7698 5.203,-6.3707c-0.002,-0.0995 -0.003,-0.1993 -0.003,-0.2993c0,-7.09 5.74,-12.83 12.83,-12.83c5.262,0 9.78,3.1614 11.76,7.6899c1.275,-0.9008 2.83,-1.4299 4.51,-1.4299z"></path><path id="Union" fill-rule="evenodd" style="fill:#FFFFFF" opacity="0.6" d="M51.99,139.55c1.6107,0 2.9451,1.198 3.1598,2.75h1.2002c1.46,0 2.65,1.19 2.65,2.65c0,1.46 -1.19,2.65 -2.65,2.65h-15.7c-1.46,0 -2.65,-1.19 -2.65,-2.65c0,-1.279 0.9133,-2.351 2.1213,-2.597c-0.0008,-0.038 -0.0012,-0.075 -0.0012,-0.113c0,-2.9 2.34,-5.24 5.24,-5.24c2.1415,0 3.981,1.29 4.7902,3.135c0.5201,-0.369 1.1549,-0.585 1.8397,-0.585z"></path><g opacity="1"  transform="translate(43.99609375 283.649658203125)  rotate(0)"><path id="Vector 8" fill-rule="evenodd" style="fill:#EDEEF2" opacity="1" d="M19.6039 16.3504C21.9439 16.3504 24.5039 15.9004 21.0239 14.0404C23.9539 14.0404 26.9239 12.4504 21.6139 11.6004C23.8139 10.2504 23.8139 5.84036 18.5039 8.04036C21.6139 2.95036 16.4939 0.580356 13.5639 5.33036C12.0939 0.750356 4.59391 -0.949644 6.79391 7.19036C3.27391 5.33036 -1.84609 9.80036 5.10391 12.1704C1.99391 12.8504 -3.31609 16.3504 8.98391 16.3504L19.6039 16.3504Z"></path><path id="Vector 9" fill-rule="evenodd" style="fill:#DFE0E5" opacity="1" d="M25.4838 15.8603C26.6738 15.8603 27.9838 15.6203 26.2038 14.6303C27.7038 14.6303 29.2138 13.7803 26.5038 13.3303C27.6338 12.6003 27.6338 10.2503 24.9238 11.4303C26.5038 8.7103 23.8938 7.4403 22.3938 9.9803C21.6538 7.5303 17.8138 6.6303 18.9438 10.9703C17.1438 9.9803 14.5338 12.3603 18.0838 13.6303C16.4938 13.9903 13.7838 15.8603 20.0638 15.8603L25.4838 15.8603Z"></path><g opacity="1"  transform="translate(0 2.8636474609375)  rotate(0)"><path id="Vector 1" fill-rule="evenodd" style="fill:#E5E6ED" opacity="1" d="M1.24938 0.944903C1.54486 1.36382 2.09023 1.78982 2.69559 1.69369C3.29127 1.6001 3.22185 0.305617 1.90533 -0.10497C1.36256 -0.283588 0.910705 -0.351591 0.0176921 0.0677273C0.545294 0.188293 0.956437 0.535657 1.24938 0.944903Z"></path><path id="Vector 5" fill-rule="evenodd" style="fill:#727785" opacity="1" d="M1.70052,0.29656c-0.07658,0.03133 -0.23828,0.08253 -0.36999,0.00982c0.07131,0.03847 0.21252,0.05172 0.36255,-0.02563zM1.32319,0.30262c0.00226,0.00198 0.00443,0.00254 0.00734,0.00376c-0.00291,-0.00122 -0.00508,-0.00179 -0.00734,-0.00376z"></path><path id="Vector 6" fill-rule="evenodd" style="fill:#727785" opacity="1" d="M2.28362,0.66262c-0.1483,0.06302 -0.46121,0.16986 -0.69835,0.03886c0.12933,0.06933 0.39321,0.08608 0.68659,-0.06883zM1.57296,0.69416c0.00361,0.00198 0.00796,0.00465 0.01231,0.00731c-0.00435,-0.00266 -0.00796,-0.00465 -0.01231,-0.00731z"></path><path id="Vector 7" fill-rule="evenodd" style="fill:#727785" opacity="1" d="M2.7898,1.15971c-0.20293,0.07785 -0.63395,0.2048 -0.97413,0.007c0.18591,0.10537 0.55545,0.14637 0.95623,-0.04947zM1.81567,1.16671c-0.00582,-0.00402 -0.01158,-0.00663 -0.01739,-0.01066c0.00581,0.00403 0.01157,0.00664 0.01739,0.01066z"></path></g><g opacity="1"  transform="translate(24.596435546875 5.6436767578125)  rotate(0)"><path id="Vector 1" fill-rule="evenodd" style="fill:#E5E6ED" opacity="1" d="M0.736152 0.585045C-0.580365 0.995633 -0.649792 2.29011 -0.0541079 2.38371C0.551252 2.47983 1.09663 2.05384 1.3921 1.63492C1.68504 1.22567 2.09619 0.878309 2.62379 0.757743C1.73078 0.338424 1.27892 0.406427 0.736152 0.585045Z"></path><path id="Vector 2" fill-rule="evenodd" style="fill:#727785" opacity="1" d="M-0.58123,2.22536c0.42761,-0.5291 1.38421,-1.54015 2.52641,-1.52084c-0.62096,0.00316 -1.63963,0.46055 -2.42547,1.60923zM2.00576,0.71001c-0.01935,-0.00505 -0.04123,-0.00043 -0.06058,-0.00549c0.01935,0.00505 0.04123,0.00043 0.06058,0.00549z"></path><path id="Vector 3" fill-rule="evenodd" style="fill:#727785" opacity="1" d="M0.56641,1.19101c0.0377,-0.15667 0.13821,-0.47167 0.38467,-0.58415c-0.13272,0.06261 -0.30332,0.26461 -0.35358,0.59255zM0.96429,0.60132c-0.00375,0.00172 -0.00848,0.00363 -0.01321,0.00554c0.00473,-0.00191 0.00848,-0.00363 0.01321,-0.00554z"></path><path id="Vector 5" fill-rule="evenodd" style="fill:#727785" opacity="1" d="M0.96445,0.89602c0.08212,0.01012 0.2482,0.04455 0.32752,0.17239c-0.04339,-0.06844 -0.16007,-0.14905 -0.32876,-0.15497zM1.29653,1.07528c-0.001,-0.00283 -0.00261,-0.00438 -0.00456,-0.00687c0.00195,0.00249 0.00356,0.00404 0.00456,0.00687z"></path><path id="Vector 4" fill-rule="evenodd" style="fill:#727785" opacity="1" d="M0.14686,1.5259c-0.00391,-0.16109 0.01211,-0.49135 0.2213,-0.6635c-0.11212,0.09467 -0.22496,0.33379 -0.1891,0.66361zM0.3795,0.85365c-0.00318,0.00263 -0.00726,0.00569 -0.01133,0.00875c0.00408,-0.00306 0.00726,-0.00569 0.01133,-0.00875z"></path><path id="Vector 6" fill-rule="evenodd" style="fill:#727785" opacity="1" d="M0.39745,1.2011c0.16018,0.01757 0.48537,0.07741 0.62814,0.30766c-0.0789,-0.12373 -0.30087,-0.2674 -0.63253,-0.27576zM1.03275,1.52115c-0.00218,-0.00349 -0.00467,-0.00794 -0.00716,-0.01239c0.00249,0.00445 0.00467,0.00794 0.00716,0.01239z"></path><path id="Vector 7" fill-rule="evenodd" style="fill:#727785" opacity="1" d="M-0.08156,1.59391c0.21508,0.03134 0.65312,0.13142 0.8531,0.47033c-0.11062,-0.18283 -0.4129,-0.39933 -0.85826,-0.42452zM0.7815,2.08204c-0.00311,-0.00636 -0.00686,-0.01145 -0.00996,-0.0178c0.00311,0.00635 0.00685,0.01144 0.00996,0.0178z"></path></g><g opacity="1"  transform="translate(12.884033203125 0.778564453125)  rotate(0)"><path id="Vector 1" fill-rule="evenodd" style="fill:#E5E6ED" opacity="1" d="M0.932648 0.119014C0.019422 1.15237 0.630812 2.29548 1.18878 2.06686C1.75634 1.83539 2.00205 1.18845 2.03768 0.677047C2.07617 0.175232 2.24781 -0.334904 2.63658 -0.711411C1.65553 -0.607305 1.30431 -0.315002 0.932648 0.119014Z"></path><path id="Vector 2" fill-rule="evenodd" style="fill:#727785" opacity="1" d="M0.65611,2.20457c0.09156,-0.67411 0.3858,-2.03452 1.37271,-2.60986c-0.52946,0.32447 -1.1637,1.24351 -1.24058,2.63314zM2.02882,-0.40529c0.01917,-0.0057 0.03548,-0.02099 0.05465,-0.0267c-0.01917,0.0057 -0.03548,0.02099 -0.05465,0.0267z"></path><path id="Vector 3" fill-rule="evenodd" style="fill:#727785" opacity="1" d="M1.10158,0.72525c-0.04894,-0.15352 -0.1262,-0.47502 0.0263,-0.69894c-0.08107,0.12232 -0.12231,0.38349 0.00464,0.69001zM1.1363,0.01473c-0.00231,0.00341 -0.00536,0.0075 -0.00842,0.01158c0.00306,-0.00408 0.00537,-0.0075 0.00842,-0.01158z"></path><path id="Vector 5" fill-rule="evenodd" style="fill:#727785" opacity="1" d="M1.28939,0.26672c0.07547,-0.0339 0.23536,-0.0905 0.36944,-0.02228c-0.07256,-0.03604 -0.21413,-0.04453 -0.36148,0.03782zM1.66629,0.24796c-0.00232,-0.0019 -0.0045,-0.00239 -0.00746,-0.00351c0.00296,0.00112 0.00514,0.00162 0.00746,0.00351z"></path><path id="Vector 4" fill-rule="evenodd" style="fill:#727785" opacity="1" d="M0.91647,1.229c-0.08682,-0.13575 -0.24425,-0.42652 -0.15454,-0.68215c-0.04684,0.13906 -0.01944,0.40205 0.18214,0.66556zM0.76709,0.5335c-0.00135,0.00389 -0.00326,0.00862 -0.00516,0.01336c0.0019,-0.00473 0.00326,-0.00862 0.00516,-0.01336z"></path><path id="Vector 6" fill-rule="evenodd" style="fill:#727785" opacity="1" d="M0.96236,0.82136c0.1461,-0.06797 0.45523,-0.18529 0.69665,-0.06235c-0.1316,-0.06494 -0.39589,-0.07279 -0.68388,0.09192zM1.67156,0.76589c-0.00368,-0.00186 -0.00812,-0.00438 -0.01255,-0.00689c0.00443,0.00251 0.00811,0.00438 0.01255,0.00689z"></path><path id="Vector 7" fill-rule="evenodd" style="fill:#727785" opacity="1" d="M0.756,1.4056c0.20019,-0.08464 0.6267,-0.22603 0.97335,-0.0398c-0.18935,-0.09905 -0.56006,-0.12758 -0.95402,0.08165zM1.72935,1.3658c0.00595,0.00383 0.01179,0.00624 0.01774,0.01007c-0.00595,-0.00383 -0.01179,-0.00624 -0.01774,-0.01007z"></path></g><g opacity="1"  transform="translate(4.136474609375 0.4940185546875)  rotate(0)"><path id="Vector 1" fill-rule="evenodd" style="fill:#E5E6ED" opacity="1" d="M0.330403 0.856938C0.352266 1.15697 0.495929 1.53679 0.827799 1.68192C1.15309 1.81453 1.52568 1.15546 0.994551 0.539908C0.771107 0.281891 0.562095 0.112144 -0.0118817 0.0383167C0.223443 0.25814 0.318088 0.559872 0.330403 0.856938Z"></path><path id="Vector 5" fill-rule="evenodd" style="fill:#727785" opacity="1" d="M0.76021,0.68001c-0.05012,-0.00672 -0.14981,-0.02869 -0.19365,-0.1042c0.0239,0.04081 0.09255,0.08789 0.19487,0.09443zM0.56444,0.57227c0.00029,0.00096 0.00183,0.00258 0.00212,0.00354c-0.00029,-0.00096 -0.00183,-0.00258 -0.00212,-0.00354z"></path><path id="Vector 6" fill-rule="evenodd" style="fill:#727785" opacity="1" d="M0.94195,1.04712c-0.09227,-0.01522 -0.27937,-0.06259 -0.3567,-0.20525c0.04292,0.07743 0.16768,0.16981 0.35994,0.18674zM0.58525,0.84187c-0.00175,-0.00263 -0.00228,-0.00456 -0.00404,-0.00719c0.00175,0.00263 0.00228,0.00456 0.00404,0.00719z"></path><path id="Vector 7" fill-rule="evenodd" style="fill:#727785" opacity="1" d="M1.03533,1.45261c-0.12377,-0.02424 -0.37569,-0.0964 -0.48348,-0.30123c0.05916,0.1103 0.22998,0.24609 0.4875,0.27422zM0.54676,1.14033c0.00202,0.00359 0.00404,0.00719 0.00509,0.01105c-0.00105,-0.00386 -0.00307,-0.00746 -0.00509,-0.01105z"></path></g><g opacity="1"  transform="translate(21.553955078125 4.4425048828125)  rotate(0)"><path id="Vector 1" fill-rule="evenodd" style="fill:#E5E6ED" opacity="1" d="M0.542971 0.0613867C0.0118426 0.676937 0.384432 1.33601 0.709723 1.2034C1.04159 1.05827 1.18526 0.678453 1.20712 0.378417C1.21943 0.0813503 1.31408 -0.220382 1.5494 -0.440205C0.975426 -0.366378 0.766414 -0.196631 0.542971 0.0613867Z"></path><path id="Vector 2" fill-rule="evenodd" style="fill:#727785" opacity="1" d="M0.40105,1.28889c0.04584,-0.39128 0.21689,-1.18805 0.79957,-1.53687c-0.31702,0.19287 -0.68221,0.73586 -0.72085,1.55427zM1.20062,-0.24798c0.00658,-0.01252 0.01613,-0.01549 0.02568,-0.01846c-0.00955,0.00297 -0.0191,0.00594 -0.02568,0.01846z"></path><path id="Vector 3" fill-rule="evenodd" style="fill:#727785" opacity="1" d="M0.64871,0.41854c-0.02878,-0.08898 -0.07247,-0.27697 0.01886,-0.41111c-0.04913,0.07364 -0.07403,0.22688 -0.00093,0.4055zM0.66757,0.00743c0.00153,-0.00277 0.00301,-0.00412 0.00454,-0.00688c-0.00153,0.00277 -0.00301,0.00412 -0.00454,0.00688z"></path><path id="Vector 5" fill-rule="evenodd" style="fill:#727785" opacity="1" d="M0.7634,0.15669c0.04509,-0.0229 0.13965,-0.06136 0.21859,-0.02404c-0.04283,-0.02006 -0.12607,-0.01988 -0.21405,0.03278zM0.98574,0.13436c-0.00078,-0.00062 -0.00297,-0.00109 -0.00375,-0.00171c0.00078,0.00062 0.00297,0.00109 0.00375,0.00171z"></path><path id="Vector 4" fill-rule="evenodd" style="fill:#727785" opacity="1" d="M0.54434,0.71565c-0.05072,-0.07857 -0.14134,-0.24898 -0.08762,-0.4021c-0.02851,0.08381 -0.01312,0.23829 0.10351,0.39207zM0.45933,0.30573c-0.00077,0.00307 -0.00184,0.00475 -0.00261,0.00782c0.00077,-0.00307 0.00184,-0.00475 0.00261,-0.00782z"></path><path id="Vector 6" fill-rule="evenodd" style="fill:#727785" opacity="1" d="M0.56583,0.47316c0.08462,-0.03981 0.26558,-0.10693 0.41019,-0.03331c-0.07927,-0.03941 -0.23442,-0.04473 -0.40236,0.05039zM0.98342,0.44348c-0.00294,-0.00117 -0.00447,-0.00246 -0.0074,-0.00363c0.00294,0.00117 0.00447,0.00246 0.0074,0.00363z"></path><path id="Vector 7" fill-rule="evenodd" style="fill:#727785" opacity="1" d="M0.45494,0.82232c0.11567,-0.05024 0.36408,-0.13373 0.56904,-0.02619c-0.1113,-0.05728 -0.329,-0.0722 -0.55703,0.05071zM1.03444,0.80234c-0.00371,-0.00182 -0.00741,-0.00363 -0.01046,-0.00621c0.00305,0.00258 0.00675,0.00439 0.01046,0.00621z"></path></g></g><g opacity="1"  transform="translate(272.99609375 283.6495361328125)  rotate(0)"><path id="Vector 8" fill-rule="evenodd" style="fill:#EDEEF2" opacity="1" d="M19.6039 16.3505C21.9439 16.3505 24.5039 15.9005 21.0239 14.0405C23.9539 14.0405 26.9239 12.4505 21.6139 11.6005C23.8139 10.2505 23.8139 5.84048 18.5039 8.04048C21.6139 2.95048 16.4939 0.580478 13.5639 5.33048C12.0939 0.750479 4.59391 -0.949522 6.79391 7.19048C3.27391 5.33048 -1.84609 9.80048 5.10391 12.1705C1.99391 12.8505 -3.31609 16.3505 8.98391 16.3505L19.6039 16.3505Z"></path><path id="Vector 9" fill-rule="evenodd" style="fill:#DFE0E5" opacity="1" d="M25.4838 15.8604C26.6738 15.8604 27.9838 15.6204 26.2038 14.6304C27.7038 14.6304 29.2138 13.7804 26.5038 13.3304C27.6338 12.6004 27.6338 10.2504 24.9238 11.4304C26.5038 8.71042 23.8938 7.44042 22.3938 9.98042C21.6538 7.53042 17.8138 6.63042 18.9438 10.9704C17.1438 9.98042 14.5338 12.3604 18.0838 13.6304C16.4938 13.9904 13.7838 15.8604 20.0638 15.8604L25.4838 15.8604Z"></path><g opacity="1"  transform="translate(0 2.8636474609375)  rotate(0)"><path id="Vector 1" fill-rule="evenodd" style="fill:#E5E6ED" opacity="1" d="M1.24938 0.945025C1.54486 1.36395 2.09023 1.78994 2.69559 1.69381C3.29127 1.60022 3.22185 0.305739 1.90533 -0.104848C1.36256 -0.283466 0.910705 -0.351469 0.0176921 0.0678494C0.545294 0.188415 0.956437 0.535779 1.24938 0.945025Z"></path><path id="Vector 5" fill-rule="evenodd" style="fill:#727785" opacity="1" d="M1.70052,0.29668c-0.07658,0.03133 -0.23828,0.08253 -0.36999,0.00982c0.07131,0.03847 0.21252,0.05172 0.36255,-0.02563zM1.33053,0.30651c-0.00291,-0.00122 -0.00508,-0.00179 -0.00734,-0.00376c0.00226,0.00198 0.00443,0.00254 0.00734,0.00376z"></path><path id="Vector 6" fill-rule="evenodd" style="fill:#727785" opacity="1" d="M2.28362,0.66274c-0.1483,0.06301 -0.46121,0.16986 -0.69835,0.03886c0.12933,0.06933 0.39321,0.08609 0.68659,-0.06883zM1.57296,0.69428c0.00361,0.00198 0.00796,0.00465 0.01231,0.00731c-0.00435,-0.00266 -0.00796,-0.00465 -0.01231,-0.00731z"></path><path id="Vector 7" fill-rule="evenodd" style="fill:#727785" opacity="1" d="M2.7898,1.15984c-0.20293,0.07785 -0.63395,0.20479 -0.97413,0.00699c0.18591,0.10537 0.55545,0.14637 0.95623,-0.04947zM1.79828,1.15618c0.00581,0.00402 0.01157,0.00663 0.01739,0.01065c-0.00582,-0.00402 -0.01158,-0.00663 -0.01739,-0.01065z"></path></g><g opacity="1"  transform="translate(24.596435546875 5.643798828125)  rotate(0)"><path id="Vector 1" fill-rule="evenodd" style="fill:#E5E6ED" opacity="1" d="M0.736152 0.585045C-0.580365 0.995633 -0.649792 2.29011 -0.0541079 2.38371C0.551252 2.47983 1.09663 2.05384 1.3921 1.63492C1.68504 1.22567 2.09619 0.878309 2.62379 0.757743C1.73078 0.338424 1.27892 0.406427 0.736152 0.585045Z"></path><path id="Vector 2" fill-rule="evenodd" style="fill:#727785" opacity="1" d="M-0.58123,2.22536c0.42761,-0.5291 1.38421,-1.54015 2.52641,-1.52084c-0.62096,0.00316 -1.63963,0.46055 -2.42547,1.60923zM2.00576,0.71001c-0.01935,-0.00505 -0.04123,-0.00043 -0.06058,-0.00549c0.01935,0.00505 0.04123,0.00043 0.06058,0.00549z"></path><path id="Vector 3" fill-rule="evenodd" style="fill:#727785" opacity="1" d="M0.56641,1.19101c0.0377,-0.15667 0.13821,-0.47167 0.38467,-0.58415c-0.13272,0.06261 -0.30332,0.26461 -0.35358,0.59255zM0.96429,0.60132c-0.00375,0.00172 -0.00848,0.00363 -0.01321,0.00554c0.00473,-0.00191 0.00848,-0.00363 0.01321,-0.00554z"></path><path id="Vector 5" fill-rule="evenodd" style="fill:#727785" opacity="1" d="M0.96445,0.89602c0.08212,0.01012 0.2482,0.04455 0.32752,0.17239c-0.04339,-0.06844 -0.16007,-0.14905 -0.32876,-0.15497zM1.29653,1.07528c-0.001,-0.00283 -0.00261,-0.00438 -0.00456,-0.00687c0.00195,0.00249 0.00356,0.00404 0.00456,0.00687z"></path><path id="Vector 4" fill-rule="evenodd" style="fill:#727785" opacity="1" d="M0.14686,1.5259c-0.00391,-0.16109 0.01211,-0.49135 0.2213,-0.6635c-0.11212,0.09467 -0.22496,0.33379 -0.1891,0.66361zM0.3795,0.85365c-0.00318,0.00263 -0.00726,0.00569 -0.01133,0.00875c0.00408,-0.00306 0.00726,-0.00569 0.01133,-0.00875z"></path><path id="Vector 6" fill-rule="evenodd" style="fill:#727785" opacity="1" d="M0.39745,1.2011c0.16018,0.01757 0.48537,0.07741 0.62814,0.30766c-0.0789,-0.12373 -0.30087,-0.2674 -0.63253,-0.27576zM1.03275,1.52115c-0.00218,-0.00349 -0.00467,-0.00794 -0.00716,-0.01239c0.00249,0.00445 0.00467,0.00794 0.00716,0.01239z"></path><path id="Vector 7" fill-rule="evenodd" style="fill:#727785" opacity="1" d="M-0.08156,1.59391c0.21508,0.03134 0.65312,0.13142 0.8531,0.47033c-0.11062,-0.18283 -0.4129,-0.39933 -0.85826,-0.42452zM0.7815,2.08204c-0.00311,-0.00636 -0.00686,-0.01145 -0.00996,-0.0178c0.00311,0.00635 0.00685,0.01144 0.00996,0.0178z"></path></g><g opacity="1"  transform="translate(12.88427734375 0.778564453125)  rotate(0)"><path id="Vector 1" fill-rule="evenodd" style="fill:#E5E6ED" opacity="1" d="M0.932404 0.119136C0.0191778 1.15249 0.630567 2.2956 1.18854 2.06698C1.7561 1.83551 2.0018 1.18857 2.03744 0.677169C2.07592 0.175354 2.24757 -0.334782 2.63634 -0.711289C1.65529 -0.607183 1.30406 -0.31488 0.932404 0.119136Z"></path><path id="Vector 2" fill-rule="evenodd" style="fill:#727785" opacity="1" d="M0.65587,2.20469c0.09156,-0.6741 0.38581,-2.03452 1.37271,-2.60986c-0.52945,0.32447 -1.16369,1.24351 -1.24058,2.63315zM2.08323,-0.43187c-0.01917,0.0057 -0.03549,0.02099 -0.05466,0.0267c0.01917,-0.0057 0.03549,-0.02099 0.05466,-0.0267z"></path><path id="Vector 3" fill-rule="evenodd" style="fill:#727785" opacity="1" d="M1.10133,0.72537c-0.04894,-0.15353 -0.12619,-0.47502 0.02631,-0.69894c-0.08107,0.12231 -0.12231,0.38349 0.00463,0.69001zM1.13606,0.01485c-0.00231,0.00341 -0.00537,0.0075 -0.00842,0.01158c0.00305,-0.00408 0.00536,-0.0075 0.00842,-0.01158z"></path><path id="Vector 5" fill-rule="evenodd" style="fill:#727785" opacity="1" d="M1.28914,0.26684c0.07548,-0.0339 0.23537,-0.0905 0.36945,-0.02228c-0.07257,-0.03604 -0.21414,-0.04453 -0.36148,0.03782zM1.66605,0.24808c-0.00232,-0.0019 -0.00451,-0.00239 -0.00746,-0.00351c0.00295,0.00112 0.00514,0.00162 0.00746,0.00351z"></path><path id="Vector 4" fill-rule="evenodd" style="fill:#727785" opacity="1" d="M0.91623,1.22912c-0.08682,-0.13575 -0.24425,-0.42652 -0.15454,-0.68215c-0.04684,0.13906 -0.01945,0.40205 0.18214,0.66556zM0.76685,0.53362c-0.00135,0.00389 -0.00326,0.00862 -0.00516,0.01336c0.0019,-0.00473 0.00326,-0.00862 0.00516,-0.01336z"></path><path id="Vector 6" fill-rule="evenodd" style="fill:#727785" opacity="1" d="M0.96211,0.82148c0.1461,-0.06797 0.45524,-0.18529 0.69665,-0.06236c-0.13159,-0.06494 -0.39589,-0.07279 -0.68388,0.09192zM1.67131,0.76602c-0.00368,-0.00186 -0.00811,-0.00438 -0.01255,-0.00689c0.00444,0.00252 0.00812,0.00438 0.01255,0.00689z"></path><path id="Vector 7" fill-rule="evenodd" style="fill:#727785" opacity="1" d="M0.75576,1.40572c0.20019,-0.08464 0.62669,-0.22603 0.97335,-0.03979c-0.18936,-0.09905 -0.56007,-0.12758 -0.95402,0.08164zM1.72911,1.36593c0.00594,0.00382 0.01179,0.00623 0.01774,0.01006c-0.00595,-0.00383 -0.0118,-0.00624 -0.01774,-0.01006z"></path></g><g opacity="1"  transform="translate(4.13623046875 0.4940185546875)  rotate(0)"><path id="Vector 1" fill-rule="evenodd" style="fill:#E5E6ED" opacity="1" d="M0.330647 0.85706C0.35251 1.1571 0.496173 1.53691 0.828043 1.68204C1.15333 1.81465 1.52592 1.15558 0.994795 0.540031C0.771351 0.282013 0.562339 0.112266 -0.0116375 0.0384387C0.223687 0.258262 0.318332 0.559994 0.330647 0.85706Z"></path><path id="Vector 5" fill-rule="evenodd" style="fill:#727785" opacity="1" d="M0.76046,0.68013c-0.05012,-0.00672 -0.14981,-0.02869 -0.19366,-0.1042c0.0239,0.04082 0.09255,0.08789 0.19487,0.09443zM0.5668,0.57593c-0.00029,-0.00096 -0.00183,-0.00258 -0.00212,-0.00354c0.00029,0.00096 0.00183,0.00258 0.00212,0.00354z"></path><path id="Vector 6" fill-rule="evenodd" style="fill:#727785" opacity="1" d="M0.94219,1.04724c-0.09227,-0.01522 -0.27937,-0.06259 -0.3567,-0.20525c0.04292,0.07743 0.16768,0.16981 0.35994,0.18674zM0.58549,0.84199c-0.00176,-0.00263 -0.00228,-0.00456 -0.00404,-0.00719c0.00175,0.00263 0.00228,0.00456 0.00404,0.00719z"></path><path id="Vector 7" fill-rule="evenodd" style="fill:#727785" opacity="1" d="M1.03557,1.45273c-0.12376,-0.02424 -0.37569,-0.0964 -0.48348,-0.30123c0.05916,0.11031 0.22998,0.24609 0.4875,0.27422zM0.55209,1.1515c-0.00105,-0.00386 -0.00307,-0.00746 -0.00509,-0.01105c0.00202,0.00359 0.00404,0.00719 0.00509,0.01105z"></path></g><g opacity="1"  transform="translate(21.553955078125 4.4425048828125)  rotate(0)"><path id="Vector 1" fill-rule="evenodd" style="fill:#E5E6ED" opacity="1" d="M0.542971 0.0615088C0.0118426 0.677059 0.384432 1.33613 0.709723 1.20352C1.04159 1.05839 1.18526 0.678575 1.20712 0.378539C1.21943 0.0814724 1.31408 -0.22026 1.5494 -0.440083C0.975426 -0.366256 0.766414 -0.196509 0.542971 0.0615088Z"></path><path id="Vector 2" fill-rule="evenodd" style="fill:#727785" opacity="1" d="M0.40105,1.28901c0.04584,-0.39128 0.21689,-1.18805 0.79957,-1.53687c-0.31702,0.19287 -0.68221,0.73586 -0.72085,1.55427zM1.2263,-0.26632c-0.00955,0.00297 -0.0191,0.00594 -0.02568,0.01846c0.00658,-0.01252 0.01613,-0.01549 0.02568,-0.01846z"></path><path id="Vector 3" fill-rule="evenodd" style="fill:#727785" opacity="1" d="M0.64871,0.41866c-0.02878,-0.08898 -0.07247,-0.27697 0.01886,-0.41111c-0.04913,0.07364 -0.07403,0.22688 -0.00093,0.4055zM0.67211,0.00067c-0.00153,0.00277 -0.00301,0.00412 -0.00454,0.00688c0.00153,-0.00277 0.00301,-0.00412 0.00454,-0.00688z"></path><path id="Vector 5" fill-rule="evenodd" style="fill:#727785" opacity="1" d="M0.7634,0.15681c0.04509,-0.0229 0.13965,-0.06136 0.21859,-0.02404c-0.04283,-0.02006 -0.12607,-0.01988 -0.21405,0.03278zM0.98574,0.13448c-0.00078,-0.00062 -0.00297,-0.00109 -0.00375,-0.00171c0.00078,0.00062 0.00297,0.00109 0.00375,0.00171z"></path><path id="Vector 4" fill-rule="evenodd" style="fill:#727785" opacity="1" d="M0.54434,0.71577c-0.05072,-0.07857 -0.14134,-0.24898 -0.08762,-0.4021c-0.02851,0.08381 -0.01312,0.23829 0.10351,0.39207zM0.45933,0.30585c-0.00077,0.00307 -0.00184,0.00475 -0.00261,0.00782c0.00077,-0.00307 0.00184,-0.00475 0.00261,-0.00782z"></path><path id="Vector 6" fill-rule="evenodd" style="fill:#727785" opacity="1" d="M0.56583,0.47328c0.08462,-0.03981 0.26558,-0.10693 0.41019,-0.03331c-0.07927,-0.03941 -0.23442,-0.04473 -0.40236,0.05039zM0.97602,0.43997c0.00294,0.00117 0.00447,0.00246 0.0074,0.00363c-0.00294,-0.00117 -0.00447,-0.00246 -0.0074,-0.00363z"></path><path id="Vector 7" fill-rule="evenodd" style="fill:#727785" opacity="1" d="M0.45494,0.82244c0.11567,-0.05024 0.36408,-0.13372 0.56904,-0.02619c-0.1113,-0.05728 -0.329,-0.0722 -0.55703,0.05072zM1.03444,0.80246c-0.00371,-0.00181 -0.00741,-0.00363 -0.01046,-0.00621c0.00305,0.00258 0.00675,0.0044 0.01046,0.00621z"></path></g></g><path  id="Vector 9" style="fill:#20242E; opacity:1;" d="M-50,298h400c0.06533,0 0.13067,0.00333 0.196,0.01c0.06533,0.006 0.13,0.01533 0.194,0.028c0.06467,0.01333 0.12833,0.02933 0.191,0.048c0.06267,0.01933 0.124,0.04133 0.184,0.066c0.06067,0.02533 0.12,0.05333 0.178,0.084c0.05733,0.03067 0.11333,0.06433 0.168,0.101c0.05467,0.03667 0.10733,0.07567 0.158,0.117c0.05067,0.04133 0.099,0.08533 0.145,0.132c0.04667,0.046 0.09067,0.09433 0.132,0.145c0.04133,0.05067 0.08033,0.10333 0.117,0.158c0.03667,0.05467 0.07033,0.11067 0.101,0.168c0.03067,0.058 0.05867,0.11733 0.084,0.178c0.02467,0.06 0.04667,0.12133 0.066,0.184c0.01867,0.06267 0.03467,0.12633 0.048,0.191c0.01267,0.064 0.022,0.12867 0.028,0.194c0.00667,0.06533 0.01,0.13067 0.01,0.196c0,0.06533 -0.00333,0.13067 -0.01,0.196c-0.006,0.06533 -0.01533,0.13 -0.028,0.194c-0.01333,0.06467 -0.02933,0.12833 -0.048,0.191c-0.01933,0.06267 -0.04133,0.124 -0.066,0.184c-0.02533,0.06067 -0.05333,0.12 -0.084,0.178c-0.03067,0.05733 -0.06433,0.11333 -0.101,0.168c-0.03667,0.05467 -0.07567,0.10733 -0.117,0.158c-0.04133,0.05067 -0.08533,0.099 -0.132,0.145c-0.046,0.04667 -0.09433,0.09067 -0.145,0.132c-0.05067,0.04133 -0.10333,0.08033 -0.158,0.117c-0.05467,0.036 -0.11067,0.06967 -0.168,0.101c-0.058,0.03067 -0.11733,0.05867 -0.178,0.084c-0.06,0.02467 -0.12133,0.04667 -0.184,0.066c-0.06267,0.01867 -0.12633,0.03467 -0.191,0.048c-0.064,0.01267 -0.12867,0.022 -0.194,0.028c-0.06533,0.00667 -0.13067,0.01 -0.196,0.01h-400c-0.06553,0 -0.13087,-0.00333 -0.196,-0.01c-0.0652,-0.006 -0.12993,-0.01533 -0.1942,-0.028c-0.0642,-0.01333 -0.12767,-0.02933 -0.1904,-0.048c-0.06267,-0.01933 -0.12427,-0.04133 -0.1848,-0.066c-0.06047,-0.02533 -0.1196,-0.05333 -0.1774,-0.084c-0.05773,-0.03133 -0.11383,-0.065 -0.1683,-0.101c-0.05447,-0.03667 -0.10703,-0.07567 -0.1577,-0.117c-0.0506,-0.04133 -0.09907,-0.08533 -0.1454,-0.132c-0.04633,-0.046 -0.09027,-0.09433 -0.1318,-0.145c-0.04153,-0.05067 -0.0805,-0.10333 -0.1169,-0.158c-0.0364,-0.05467 -0.07003,-0.11067 -0.1009,-0.168c-0.03093,-0.058 -0.05893,-0.11733 -0.084,-0.178c-0.02507,-0.06 -0.0471,-0.12133 -0.0661,-0.184c-0.019,-0.06267 -0.0349,-0.12633 -0.0477,-0.191c-0.01273,-0.064 -0.02233,-0.12867 -0.0288,-0.194c-0.0064,-0.06533 -0.0096,-0.13067 -0.0096,-0.196c0,-0.06533 0.0032,-0.13067 0.0096,-0.196c0.00647,-0.06533 0.01607,-0.13 0.0288,-0.194c0.0128,-0.06467 0.0287,-0.12833 0.0477,-0.191c0.019,-0.06267 0.04103,-0.124 0.0661,-0.184c0.02507,-0.06067 0.05307,-0.12 0.084,-0.178c0.03087,-0.05733 0.0645,-0.11333 0.1009,-0.168c0.0364,-0.05467 0.07537,-0.10733 0.1169,-0.158c0.04153,-0.05067 0.08547,-0.099 0.1318,-0.145c0.04633,-0.04667 0.0948,-0.09067 0.1454,-0.132c0.05067,-0.04133 0.10323,-0.08033 0.1577,-0.117c0.05447,-0.03667 0.11057,-0.07033 0.1683,-0.101c0.0578,-0.03067 0.11693,-0.05867 0.1774,-0.084c0.06053,-0.02467 0.12213,-0.04667 0.1848,-0.066c0.06273,-0.01867 0.1262,-0.03467 0.1904,-0.048c0.06427,-0.01267 0.129,-0.022 0.1942,-0.028c0.06513,-0.00667 0.13047,-0.01 0.196,-0.01z"></path><g opacity="1"  transform="translate(73 161)  rotate(0)"><path id="Rectangle 485" fill-rule="evenodd" style="fill:#334680" opacity="1" d="M12 137L91 137L91 28L12 28L12 137Z"></path><g opacity="1"  transform="translate(0 0)  rotate(0)"><path id="Rectangle 483" fill-rule="evenodd" style="fill:#FFFFFF" opacity="1" d="M16.4399 28.4L57.7899 28.4L57.7899 25.41C57.7899 24.31 56.8999 23.42 55.7999 23.42L18.4299 23.42C17.3299 23.42 16.4399 24.31 16.4399 25.41L16.4399 28.4Z"></path><path id="Rectangle 484" fill-rule="evenodd" style="fill:#FFFFFF" opacity="1" d="M66.26 13.45L84.69 13.45C84.97 13.45 85.19 13.23 85.19 12.95L85.19 10.96C85.19 10.68 84.97 10.46 84.69 10.46L66.26 10.46C65.98 10.46 65.76 10.68 65.76 10.96L65.76 12.95C65.76 13.23 65.98 13.45 66.26 13.45Z"></path><g opacity="1"  transform="translate(3.989990234375 3.989990234375)  rotate(0)"></g><path id="Ellipse 52" fill-rule="evenodd" style="fill:#FFFFFF" opacity="1" d="M91.1699 7.96997C88.9599 7.96997 87.1799 9.74997 87.1799 11.96C87.1799 14.16 88.9599 15.94 91.1699 15.94C93.3699 15.94 95.1499 14.16 95.1499 11.96C95.1499 9.74997 93.3699 7.96997 91.1699 7.96997Z"></path></g><g opacity="1"  transform="translate(0 34.3800048828125)  rotate(0)"><path id="Rectangle 483" fill-rule="evenodd" style="fill:#FFFFFF" opacity="1" d="M16.4399 28.4L57.7899 28.4L57.7899 25.41C57.7899 24.31 56.8999 23.42 55.7999 23.42L18.4299 23.42C17.3299 23.42 16.4399 24.31 16.4399 25.41L16.4399 28.4Z"></path><path id="Rectangle 484" fill-rule="evenodd" style="fill:#FFFFFF" opacity="1" d="M66.26 13.45L84.69 13.45C84.97 13.45 85.19 13.23 85.19 12.95L85.19 10.96C85.19 10.68 84.97 10.46 84.69 10.46L66.26 10.46C65.98 10.46 65.76 10.68 65.76 10.96L65.76 12.95C65.76 13.23 65.98 13.45 66.26 13.45Z"></path><g opacity="1"  transform="translate(3.989990234375 3.989990234375)  rotate(0)"></g><path id="Ellipse 52" fill-rule="evenodd" style="fill:#FFFFFF" opacity="1" d="M91.1699 7.96997C88.9599 7.96997 87.1799 9.74997 87.1799 11.96C87.1799 14.16 88.9599 15.94 91.1699 15.94C93.3699 15.94 95.1499 14.16 95.1499 11.96C95.1499 9.74997 93.3699 7.96997 91.1699 7.96997Z"></path></g><g opacity="1"  transform="translate(0 68.77001953125)  rotate(0)"><path id="Rectangle 483" fill-rule="evenodd" style="fill:#FFFFFF" opacity="1" d="M16.4399 28.3999L57.7899 28.3999L57.7899 25.4099C57.7899 24.3099 56.8999 23.4199 55.7999 23.4199L18.4299 23.4199C17.3299 23.4199 16.4399 24.3099 16.4399 25.4099L16.4399 28.3999Z"></path><path id="Rectangle 484" fill-rule="evenodd" style="fill:#FFFFFF" opacity="1" d="M66.26 13.45L84.69 13.45C84.97 13.45 85.19 13.23 85.19 12.95L85.19 10.96C85.19 10.68 84.97 10.46 84.69 10.46L66.26 10.46C65.98 10.46 65.76 10.68 65.76 10.96L65.76 12.95C65.76 13.23 65.98 13.45 66.26 13.45Z"></path><g opacity="1"  transform="translate(3.989990234375 3.989990234375)  rotate(0)"></g><path id="Ellipse 52" fill-rule="evenodd" style="fill:#FFFFFF" opacity="1" d="M91.1699 7.96997C88.9599 7.96997 87.1799 9.74997 87.1799 11.96C87.1799 14.16 88.9599 15.94 91.1699 15.94C93.3699 15.94 95.1499 14.16 95.1499 11.96C95.1499 9.74997 93.3699 7.96997 91.1699 7.96997Z"></path></g><g opacity="1"  transform="translate(0 103.1500244140625)  rotate(0)"><path id="Rectangle 483" fill-rule="evenodd" style="fill:#FFFFFF" opacity="1" d="M16.4399 28.4L57.7899 28.4L57.7899 25.41C57.7899 24.31 56.8999 23.42 55.7999 23.42L18.4299 23.42C17.3299 23.42 16.4399 24.31 16.4399 25.41L16.4399 28.4Z"></path><path id="Rectangle 484" fill-rule="evenodd" style="fill:#FFFFFF" opacity="1" d="M66.26 13.45L84.69 13.45C84.97 13.45 85.19 13.23 85.19 12.95L85.19 10.96C85.19 10.68 84.97 10.46 84.69 10.46L66.26 10.46C65.98 10.46 65.76 10.68 65.76 10.96L65.76 12.95C65.76 13.23 65.98 13.45 66.26 13.45Z"></path><g opacity="1"  transform="translate(3.989990234375 3.989990234375)  rotate(0)"></g><path id="Ellipse 52" fill-rule="evenodd" style="fill:#FFFFFF" opacity="1" d="M91.1699 7.96997C88.9599 7.96997 87.1799 9.74997 87.1799 11.96C87.1799 14.16 88.9599 15.94 91.1699 15.94C93.3699 15.94 95.1499 14.16 95.1499 11.96C95.1499 9.74997 93.3699 7.96997 91.1699 7.96997Z"></path></g><g opacity="1"  transform="translate(139 51)  rotate(0)"><path id="Rectangle 492" fill-rule="evenodd" style="fill:#2F63FF" opacity="1" d="M1.83 24L22.17 24C23.18 24 24 23.18 24 22.17L24 1.83C24 0.82 23.18 0 22.17 0L1.83 0C0.82 0 0 0.82 0 1.83L0 22.17C0 23.18 0.82 24 1.83 24Z"></path><path id="Intersect" fill-rule="evenodd" style="fill:#FFFFFF" opacity="0.1" d="M0,16.9955v-15.1655c0,-1.01 0.82,-1.83 1.83,-1.83h16.75c0.2579,0 0.5034,0.05347 0.7261,0.14992c-1.4816,9.40701 -9.53379,16.63898 -19.3061,16.84558z"></path><path id="Rectangle 493" fill-rule="evenodd" style="fill:#334680" opacity="1" d="M12 20.72L12 20.72C16.81 20.72 20.72 16.81 20.72 12L20.72 12C20.72 7.18002 16.82 3.27002 12 3.27002L12 3.27002C7.18002 3.27002 3.27002 7.18002 3.27002 12L3.27002 12C3.27002 16.82 7.18002 20.72 12 20.72Z"></path></g><g opacity="1"  transform="translate(103 85)  rotate(0)"><g opacity="1"  transform="translate(0 0)  rotate(0)"><path id="Union" fill-rule="evenodd" style="fill:#334680" opacity="1" d="M0,-1.5h44.5c5.5228,0 10,4.47715 10,10c0,5.5228 -4.4772,10 -10,10h-26.5c-2.4853,0 -4.5,2.0147 -4.5,4.5c0,2.4853 2.0147,4.5 4.5,4.5h36v3h-36c-4.1421,0 -7.5,-3.3579 -7.5,-7.5c0,-4.1421 3.3579,-7.5 7.5,-7.5h26.5c3.866,0 7,-3.134 7,-7c0,-3.86599 -3.134,-7 -7,-7h-44.5z"></path><g opacity="1"  transform="translate(49 22)  rotate(0)"><path id="Rectangle 490" fill-rule="evenodd" style="fill:#334680" opacity="1" d="M13 5L18 5C18.55 5 19 4.55 19 4L19 4C19 3.45 18.55 3 18 3L13 3L13 5Z"></path><path id="Rectangle 491" fill-rule="evenodd" style="fill:#334680" opacity="1" d="M13 11L18 11C18.55 11 19 10.55 19 10L19 10C19 9.45 18.55 9 18 9L13 9L13 11Z"></path><path id="Rectangle 488" fill-rule="evenodd" style="fill:#2F63FF" opacity="1" d="M10.73 14L12.27 14C12.67 14 13 13.67 13 13.27L13 0.73C13 0.33 12.67 0 12.27 0L10.73 0C10.33 0 10 0.33 10 0.73L10 13.27C10 13.67 10.33 14 10.73 14Z"></path></g></g><g opacity="1"  transform="translate(65 10)  rotate(0)"><path id="Rectangle 497" fill-rule="evenodd" style="fill:#4D79FF" opacity="1" d="M10.46 9.95996L10.46 9.95996C10.46 9.67996 10.24 9.45996 9.95996 9.45996L4.97996 9.45996C4.69996 9.45996 4.47996 9.67996 4.47996 9.95996L4.47996 9.95996C4.47996 10.24 4.69996 10.46 4.97996 10.46L9.95996 10.46C10.24 10.46 10.46 10.24 10.46 9.95996Z"></path><path id="Rectangle 498" fill-rule="evenodd" style="fill:#4D79FF" opacity="1" d="M7.57426 2.84574L7.57426 2.84574C7.37627 2.64775 7.06514 2.64775 6.86715 2.84574L3.34576 6.36713C3.14777 6.56512 3.14777 6.87625 3.34576 7.07424L3.34576 7.07424C3.54375 7.27223 3.85487 7.27223 4.05287 7.07424L7.57426 3.55285C7.77225 3.35486 7.77225 3.04373 7.57426 2.84574Z"></path></g><g opacity="1"  transform="translate(48 39)  rotate(0)"><path id="Rectangle 496" fill-rule="evenodd" style="fill:#4D79FF" opacity="1" d="M9.95996 4.47998L9.95996 4.47998C9.67996 4.47998 9.45996 4.69998 9.45996 4.97998L9.45996 9.95998C9.45996 10.24 9.67996 10.46 9.95996 10.46L9.95996 10.46C10.24 10.46 10.46 10.24 10.46 9.95998L10.46 4.97998C10.46 4.69998 10.24 4.47998 9.95996 4.47998Z"></path><path id="Rectangle 497" fill-rule="evenodd" style="fill:#4D79FF" opacity="1" d="M5.97998 0.5L5.97998 0.5C5.97998 0.22 5.75998 1.34711e-17 5.47998 3.06162e-17L0.49998 3.35553e-16C0.21998 3.52698e-16 -1.95503e-05 0.22 -1.95503e-05 0.5L-1.95503e-05 0.5C-1.95503e-05 0.78 0.21998 1 0.49998 1L5.47998 1C5.75998 1 5.97998 0.78 5.97998 0.5Z"></path><path id="Rectangle 498" fill-rule="evenodd" style="fill:#4D79FF" opacity="1" d="M7.1143 3.38578L7.1143 3.38578C6.91631 3.18779 6.60518 3.18779 6.40719 3.38578L2.8858 6.90717C2.68781 7.10516 2.68781 7.41629 2.8858 7.61428L2.8858 7.61428C3.08379 7.81227 3.39491 7.81227 3.5929 7.61428L7.1143 4.09289C7.31229 3.8949 7.31229 3.58377 7.1143 3.38578Z"></path></g></g></g><path id="Intersect" fill-rule="evenodd" style="fill:#FFFFFF" opacity="0.1" d="M131,178c0,3.767 -0.164,7.496 -0.485,11.18h-0.275v-2.96c0,-1.1 -0.89,-1.98 -1.98,-1.98h-37c-1.09,0 -1.98,0.88 -1.98,1.98v2.96h-14.31c-1.09,0 -1.97,-0.88 -1.97,-1.97v-24.23c0,-1.09 0.88,-1.98 1.97,-1.98h54.902c0.744,5.561 1.128,11.236 1.128,17zM124.453,218.36h-33.193c-1.09,0 -1.98,0.89 -1.98,1.98v2.97h-14.31c-1.09,0 -1.97,-0.89 -1.97,-1.98v-24.23c0,-1.09 0.88,-1.98 1.97,-1.98h54.886c-1.079,8.007 -2.904,15.778 -5.403,23.24zM106.871,252.49h-15.611c-1.09,0 -1.98,0.88 -1.98,1.98v2.96h-14.31c-1.09,0 -1.97,-0.88 -1.97,-1.97v-24.23c0,-1.1 0.88,-1.98 1.97,-1.98h45.265c-3.64,8.244 -8.132,16.028 -13.364,23.24zM73,284.639v-19.289c0,-1.09 0.88,-1.98 1.97,-1.98h23.0575c-7.3753,8.118 -15.7875,15.278 -25.0275,21.269zM78.43,167.92c0.82,0 1.48,-0.66 1.48,-1.48c0,-0.82 -0.66,-1.48 -1.48,-1.48c-0.82,0 -1.48,0.66 -1.48,1.48c0,0.82 0.66,1.48 1.48,1.48zM83.36,164.96c-0.82,0 -1.48,0.66 -1.48,1.48c0,0.82 0.66,1.48 1.48,1.48c0.82,0 1.48,-0.66 1.48,-1.48c0,-0.82 -0.66,-1.48 -1.48,-1.48zM88.3,167.92c0.81,0 1.48,-0.66 1.48,-1.48c0,-0.82 -0.67,-1.48 -1.48,-1.48c-0.82,0 -1.48,0.66 -1.48,1.48c0,0.82 0.66,1.48 1.48,1.48zM79.91,200.56c0,-0.82 -0.66,-1.48 -1.48,-1.48c-0.82,0 -1.48,0.66 -1.48,1.48c0,0.82 0.66,1.49 1.48,1.49c0.82,0 1.48,-0.67 1.48,-1.49zM83.36,202.05c0.82,0 1.48,-0.67 1.48,-1.49c0,-0.82 -0.66,-1.48 -1.48,-1.48c-0.82,0 -1.48,0.66 -1.48,1.48c0,0.82 0.66,1.49 1.48,1.49zM89.78,200.56c0,-0.82 -0.67,-1.48 -1.48,-1.48c-0.82,0 -1.48,0.66 -1.48,1.48c0,0.82 0.66,1.49 1.48,1.49c0.81,0 1.48,-0.67 1.48,-1.49zM79.91,234.69c0,-0.82 -0.66,-1.48 -1.48,-1.48c-0.82,0 -1.48,0.66 -1.48,1.48c0,0.82 0.66,1.48 1.48,1.48c0.82,0 1.48,-0.66 1.48,-1.48zM84.84,234.69c0,-0.82 -0.66,-1.48 -1.48,-1.48c-0.82,0 -1.48,0.66 -1.48,1.48c0,0.82 0.66,1.48 1.48,1.48c0.82,0 1.48,-0.66 1.48,-1.48zM88.3,233.21c-0.82,0 -1.48,0.66 -1.48,1.48c0,0.82 0.66,1.48 1.48,1.48c0.81,0 1.48,-0.66 1.48,-1.48c0,-0.82 -0.67,-1.48 -1.48,-1.48zM79.91,268.81c0,-0.82 -0.66,-1.48 -1.48,-1.48c-0.82,0 -1.48,0.66 -1.48,1.48c0,0.82 0.66,1.49 1.48,1.49c0.82,0 1.48,-0.67 1.48,-1.49zM84.84,268.81c0,-0.82 -0.66,-1.48 -1.48,-1.48c-0.82,0 -1.48,0.66 -1.48,1.48c0,0.82 0.66,1.49 1.48,1.49c0.82,0 1.48,-0.67 1.48,-1.49zM86.82,268.81c0,0.82 0.66,1.49 1.48,1.49c0.81,0 1.48,-0.67 1.48,-1.49c0,-0.82 -0.67,-1.48 -1.48,-1.48c-0.82,0 -1.48,0.66 -1.48,1.48z"></path></g></svg>
